<svg xmlns="http://www.w3.org/2000/svg" width="22.639" height="21.436" viewBox="0 0 22.639 21.436">
  <path id="Path_207" data-name="Path 207" d="M74.445,491.633a.877.877,0,0,0,.511-1.586l-10.442-7.6a.871.871,0,0,0-1.028,0l-10.443,7.6a.877.877,0,0,0,.514,1.586H55.25v10.226H53.281a.22.22,0,0,0-.219.219V503.5a.22.22,0,0,0,.219.219H74.719a.22.22,0,0,0,.219-.219v-1.422a.22.22,0,0,0-.219-.219H72.75V491.633ZM64,484.379l7.413,5.392H56.587Zm-6.781,7.254h3.2v10.226h-3.2Zm5.168,0h3.2v10.226h-3.2Zm8.394,10.226H67.555V491.633h3.226Z" transform="translate(-52.681 -482.283)" fill="#0b535b"/>
</svg>
