<svg xmlns="http://www.w3.org/2000/svg" width="39" height="39" viewBox="0 0 39 39">
  <g id="Group_218" data-name="Group 218" transform="translate(-316 -40)">
    <circle id="Ellipse_5" data-name="Ellipse 5" cx="19.5" cy="19.5" r="19.5" transform="translate(316 40)" fill="#44cfb0" opacity="0.1"/>
    <path id="Path_72" data-name="Path 72" d="M342.8,90.071l-1.541-1.79a1.317,1.317,0,0,1-.387-.935V85.823A4.973,4.973,0,0,0,336.136,81a4.871,4.871,0,0,0-5.043,4.626v1.717a1.327,1.327,0,0,1-.387.935l-1.513,1.79a.665.665,0,0,0-.143.721.667.667,0,0,0,.244.3.66.66,0,0,0,.367.112h12.67a.661.661,0,0,0,.467-1.129Z" transform="translate(0 -29)" fill="#0b535b"/>
    <path id="Path_73" data-name="Path 73" d="M333.443,92.546a2.61,2.61,0,0,0,5.1,0Z" transform="translate(0 -29)" fill="#0b535b"/>
  </g>
</svg>
