<svg xmlns="http://www.w3.org/2000/svg" width="14" height="14.5" viewBox="0 0 14 14.5">
  <path id="Path_178" data-name="Path 178" d="M56.955,683.637a6.784,6.784,0,0,1-1.492,3.507A11.383,11.383,0,0,0,53.5,690.5h-7a11.379,11.379,0,0,0-1.965-3.357,6.744,6.744,0,0,1-.844-7.256,6.9,6.9,0,0,1,2.583-2.835,7.122,7.122,0,0,1,7.454,0,6.9,6.9,0,0,1,2.582,2.835,6.735,6.735,0,0,1,.645,3.748ZM52.792,689.5H47.208a10.547,10.547,0,0,0-.763-1.4,17.494,17.494,0,0,0-1.136-1.588,5.744,5.744,0,0,1-.721-6.182A5.9,5.9,0,0,1,46.8,677.9a6.122,6.122,0,0,1,6.4,0,5.906,5.906,0,0,1,2.209,2.424,5.744,5.744,0,0,1-.723,6.182,17.155,17.155,0,0,0-1.135,1.588,10.536,10.536,0,0,0-.762,1.4Z" transform="translate(-43 -676)" fill="#0b535b"/>
</svg>
