<svg xmlns="http://www.w3.org/2000/svg" width="30.863" height="25.627" viewBox="0 0 30.863 25.627">
  <g id="c7df988bfc39ad822d7398beb20de72c" transform="translate(-10.002 -94.132)">
    <g id="Group_256" data-name="Group 256" transform="translate(10.002 94.132)">
      <path id="Path_329" data-name="Path 329" d="M28.651-417.232c-4.179,1.921-17.779,8.213-18.06,8.358-.453.226-.625.473-.583.817.034.316,4.927,10.958,5.146,11.2a.762.762,0,0,0,.844.206c.151-.055,3.76-1.708,8.021-3.685s8.632-3.994,9.7-4.488A10.76,10.76,0,0,0,35.8-405.9c.3-.391.3-.357-2.395-6.2-1.77-3.829-2.587-5.517-2.7-5.606C30.339-417.98,30.215-417.952,28.651-417.232Zm3.342,5.826c1.18,2.552,2.141,4.652,2.127,4.659s-16.893,7.816-17.593,8.131l-.419.185-2.141-4.625c-1.18-2.552-2.127-4.645-2.107-4.666s2.957-1.386,6.539-3.04,7.61-3.52,8.948-4.144,2.45-1.132,2.47-1.139S30.819-413.959,31.992-411.406Z" transform="translate(-10.002 417.868)" fill="#0b535b"/>
      <path id="Path_330" data-name="Path 330" d="M283.651-221.89a4.593,4.593,0,0,0-3.047,2.36,4.287,4.287,0,0,0-.467,2.264,4.445,4.445,0,0,0,3.376,4.083,5.279,5.279,0,0,0,2.127,0,4.389,4.389,0,0,0,2.9-2.3,6.236,6.236,0,0,0,.391-.995,5.506,5.506,0,0,0-.007-2.093,4.543,4.543,0,0,0-3.115-3.253A5.319,5.319,0,0,0,283.651-221.89Z" transform="translate(-271.624 228.139)" fill="#0b535b"/>
      <path id="Path_331" data-name="Path 331" d="M381.38-126.074a.552.552,0,0,0-.151.6.486.486,0,0,0,.535.35h.206l-.213-.467C381.5-126.15,381.469-126.191,381.38-126.074Z" transform="translate(-369.503 135.315)" fill="#0b535b"/>
      <path id="Path_333" data-name="Path 333" d="M280-28.732a1.853,1.853,0,0,1-.7,1.016l-.281.206h2.765v10.292h-19.83v-1.2a7.418,7.418,0,0,0-.048-1.2c-.034.007-.377.158-.775.336l-.721.336-.021,1.345a4.187,4.187,0,0,0,.089,1.558c.226.432-.46.4,11.4.4s11.116.027,11.37-.4c.11-.185.117-.679.117-6.354v-6.155l-.233-.233-.233-.233h-2.82Z" transform="translate(-252.498 41.266)" fill="#0b535b"/>
      <path id="Path_334" data-name="Path 334" d="M489.973,78.832c-.508.24-.954.446-.995.46s-.858.419-1.366.631c-.254.11-1.311.6-3.095,1.427l-1.1.508.02.268a4.141,4.141,0,0,0,.439,1.537,3.492,3.492,0,0,0,.871,1.166,4.4,4.4,0,0,0,5.139.817,4.461,4.461,0,0,0,2.168-5.544,4.606,4.606,0,0,0-.933-1.489L490.9,78.4Z" transform="translate(-468.511 -62.771)" fill="#0b535b"/>
      <g id="nigeria-naira-currency-symbol-svgrepo-com" transform="matrix(0.891, -0.454, 0.454, 0.891, 9.727, 9.912)">
        <path id="Path_324" data-name="Path 324" d="M4.927,2.364h-.7V1.693h.7a.19.19,0,1,0,0-.38h-.7V.381a.449.449,0,0,0-.08-.3A.256.256,0,0,0,3.94,0a.245.245,0,0,0-.2.084.455.455,0,0,0-.079.3v.932H2.347L1.788.468,1.652.254A.951.951,0,0,0,1.538.106.364.364,0,0,0,1.427.028.369.369,0,0,0,1.275,0,.384.384,0,0,0,1.06.065.355.355,0,0,0,.919.228.833.833,0,0,0,.882.512v.8H.19a.19.19,0,0,0,0,.38H.882v.671H.19a.19.19,0,1,0,0,.38H.882V3.808A.44.44,0,0,0,.964,4.1a.257.257,0,0,0,.208.088A.261.261,0,0,0,1.379,4.1a.43.43,0,0,0,.084-.293V2.744H2.652l.643.987c.045.065.091.131.137.2a.926.926,0,0,0,.135.152.42.42,0,0,0,.137.084.507.507,0,0,0,.171.027c.174,0,.352-.053.352-.448v-1h.7a.19.19,0,0,0,0-.38ZM3.661,1.693v.671H3.042L2.6,1.693ZM1.464.921l.255.391H1.464Zm0,1.443V1.693h.5l.438.671Zm2.2.937-.368-.557h.368V3.3Z" transform="translate(0)" fill="#e7eff2"/>
      </g>
      <g id="nigeria-naira-currency-symbol-svgrepo-com-2" data-name="nigeria-naira-currency-symbol-svgrepo-com" transform="matrix(0.891, -0.454, 0.454, 0.891, 16.188, 18.232)">
        <path id="Path_324-2" data-name="Path 324" d="M4.927,2.364h-.7V1.693h.7a.19.19,0,1,0,0-.38h-.7V.381a.449.449,0,0,0-.08-.3A.256.256,0,0,0,3.94,0a.245.245,0,0,0-.2.084.455.455,0,0,0-.079.3v.932H2.347L1.788.468,1.652.254A.951.951,0,0,0,1.538.106.364.364,0,0,0,1.427.028.369.369,0,0,0,1.275,0,.384.384,0,0,0,1.06.065.355.355,0,0,0,.919.228.833.833,0,0,0,.882.512v.8H.19a.19.19,0,0,0,0,.38H.882v.671H.19a.19.19,0,1,0,0,.38H.882V3.808A.44.44,0,0,0,.964,4.1a.257.257,0,0,0,.208.088A.261.261,0,0,0,1.379,4.1a.43.43,0,0,0,.084-.293V2.744H2.652l.643.987c.045.065.091.131.137.2a.926.926,0,0,0,.135.152.42.42,0,0,0,.137.084.507.507,0,0,0,.171.027c.174,0,.352-.053.352-.448v-1h.7a.19.19,0,0,0,0-.38ZM3.661,1.693v.671H3.042L2.6,1.693ZM1.464.921l.255.391H1.464Zm0,1.443V1.693h.5l.438.671Zm2.2.937-.368-.557h.368V3.3Z" transform="translate(0)" fill="#f8f8f8"/>
      </g>
    </g>
  </g>
</svg>
