<svg xmlns="http://www.w3.org/2000/svg" xmlns:xlink="http://www.w3.org/1999/xlink" width="296.772" height="281.16" viewBox="0 0 296.772 281.16">
  <defs>
    <style>
      .cls-1 {
        fill: #c1c1c1;
      }

      .cls-2 {
        fill: #5cabb4;
      }

      .cls-3 {
        fill: #02ecb7;
      }

      .cls-4 {
        fill: #a8b5ff;
      }

      .cls-5 {
        fill: #f7cc7f;
      }

      .cls-6 {
        fill: #31464a;
      }

      .cls-7 {
        fill: #f7a491;
      }

      .cls-8 {
        fill: #124035;
      }

      .cls-9 {
        fill: #0b3b30;
      }

      .cls-10 {
        fill: #f4f2ea;
      }

      .cls-11 {
        fill: #f8a492;
      }

      .cls-12 {
        fill: #f47458;
      }

      .cls-13 {
        fill: url(#linear-gradient);
      }

      .cls-14 {
        fill: #31454a;
      }

      .cls-15 {
        fill: #fffdf5;
      }

      .cls-16 {
        fill: #0b535b;
      }

      .cls-17 {
        fill: #4c6b68;
      }

      .cls-18 {
        fill: #276c64;
      }

      .cls-19 {
        fill: #2c3d39;
      }

      .cls-20 {
        fill: #44cfb0;
      }
    </style>
    <linearGradient id="linear-gradient" x1="1.019" y1="0.032" x2="0.037" y2="0.918" gradientUnits="objectBoundingBox">
      <stop offset="0" stop-color="#0b535b"/>
      <stop offset="1" stop-color="#637b76"/>
    </linearGradient>
  </defs>
  <g id="Tiny_young_guys_paying_with_plastic_card_via_mobile_app" data-name="Tiny young guys paying with plastic card via mobile app" transform="translate(2.56 -108.105)">
    <g id="Layer_1" data-name="Layer 1" transform="translate(-2.56 108.105)">
      <path id="Path_1419" data-name="Path 1419" class="cls-1" d="M327.9,287.617H58.51a1.594,1.594,0,0,1-1.593-1.594h0a1.594,1.594,0,0,1,1.593-1.594H327.9a1.594,1.594,0,0,1,1.594,1.594h0A1.594,1.594,0,0,1,327.9,287.617Z" transform="translate(-44.259 -6.457)"/>
      <path id="Path_1420" data-name="Path 1420" class="cls-2" d="M236.968,119.425l-2.938-2.217-3.5,1.157a.506.506,0,0,1-.637-.647l1.209-3.48-2.191-2.97a.506.506,0,0,1,.418-.8l3.683.074,2.151-2.988a.506.506,0,0,1,.9.149l1.068,3.526,3.51,1.119a.506.506,0,0,1,.135.9l-3.024,2.105.02,3.685a.506.506,0,0,1-.8.384Z" transform="translate(1.218 -53.304)"/>
      <path id="Path_1421" data-name="Path 1421" class="cls-3" d="M168.814,95.168l-2.942-2.229-3.5,1.159a.508.508,0,0,1-.639-.647l1.211-3.488-2.191-2.974a.508.508,0,0,1,.418-.809l3.691.076,2.155-3a.506.506,0,0,1,.9.149l1.07,3.534,3.518,1.121a.508.508,0,0,1,.135.9l-3.03,2.109.032,3.683a.508.508,0,0,1-.821.414Z" transform="translate(-16.816 -59.733)"/>
      <path id="Path_1422" data-name="Path 1422" class="cls-4" d="M138.6,246.58l-3.2-3.121-4.382.872a.615.615,0,0,1-.671-.874l1.974-4.006-2.191-3.9a.615.615,0,0,1,.625-.908l4.428.639,3.038-3.285a.614.614,0,0,1,1.056.315l.761,4.408,4.061,1.872a.615.615,0,0,1,.03,1.1l-3.958,2.084-.528,4.444a.615.615,0,0,1-1.038.361Z" transform="translate(-24.912 -20.381)"/>
      <path id="Path_1423" data-name="Path 1423" class="cls-3" d="M125.622,82.658a2.755,2.755,0,0,1,2.488-2.946,2.6,2.6,0,0,1,2.868,2.436,2.572,2.572,0,0,1-2.36,3.012A2.637,2.637,0,0,1,125.622,82.658Zm.532-4.251-1.886-11.684a1.713,1.713,0,0,1,1.5-1.974l1.175-.129a1.711,1.711,0,0,1,1.894,1.593l.719,11.816Z" transform="translate(-26.447 -64.61)"/>
      <path id="Path_1424" data-name="Path 1424" class="cls-2" d="M187.312,66.893a3.709,3.709,0,0,1,2.438-2.169,3,3,0,0,1,3.687,2.235c.538,1.89-.4,4.581-3.928,7.679-4.631-.787-6.838-2.579-7.37-4.47a3.007,3.007,0,0,1,1.964-3.84A3.721,3.721,0,0,1,187.312,66.893Z" transform="translate(-11.167 -64.61)"/>
      <path id="Path_1425" data-name="Path 1425" class="cls-5" d="M182.7,254.111a4.147,4.147,0,0,1,2.717-2.416,3.355,3.355,0,0,1,4.111,2.49c.6,2.107-.446,5.1-4.382,8.565-5.161-.876-7.621-2.872-8.218-4.98a3.348,3.348,0,0,1,2.191-4.279A4.141,4.141,0,0,1,182.7,254.111Z" transform="translate(-12.551 -15.151)"/>
      <path id="Path_1426" data-name="Path 1426" class="cls-2" d="M97.681,146.131a3.239,3.239,0,0,1,2.777-.61,2.619,2.619,0,0,1,1.85,3.267c-.4,1.665-2.251,3.307-6.252,4.161-3.187-2.568-4.1-4.868-3.7-6.533a2.617,2.617,0,0,1,3.125-2.082A3.233,3.233,0,0,1,97.681,146.131Z" transform="translate(-34.907 -43.538)"/>
      <path id="Path_1427" data-name="Path 1427" class="cls-3" d="M173.812,27.668,178.3,30.4l2.813-4.008,4.541,2.492,3.159-3.5,3.7,1.311.663-1.876-4.954-1.751-3,3.316-4.725-2.593-2.765,3.942-4.069-2.472Z" transform="translate(33.713 6.102)"/>
      <path id="Path_1428" data-name="Path 1428" class="cls-3" d="M48.732,54.279l-.691,4.31-7.057-.349-1.791,6.175-5.324.6.3,2.695,7.121-.807,1.7-5.852,7.342.363,1.042-6.484Z" transform="translate(-3.272 14.359)"/>
      <path id="Path_1429" data-name="Path 1429" class="cls-6" d="M84.9,177.345s-2.653-2.789-4.78.6a2.111,2.111,0,0,0-2.789.721s-2.97-.894-3.691,3.548c0,0-1.528-.289-1.731,1.528a4.5,4.5,0,0,0,.705,3.038s-.859.643-.468,2.315a2.062,2.062,0,0,0,1.506,1.635s.319,2.39,1.356,3.115a3.362,3.362,0,0,0,2.452.374,1.6,1.6,0,0,0,1.593,1.183c1.219-.116,2.711-1.269,4.067-.749s4.874-.03,4.874-.03,3.95-1.759,2.769-5.8a2.955,2.955,0,0,0,.259-4.125s1.327-3.518-1.3-5.6A6.852,6.852,0,0,0,84.9,177.345Z" transform="translate(-40.302 -35.072)"/>
      <path id="Path_1430" data-name="Path 1430" class="cls-7" d="M60.793,255.448a39.635,39.635,0,0,1-5.332-.894c-.751-.372-4.6,3.295-3.836,5.135.428,1.036,1.793.9,1.793.9l1.1-1.072,5.8,1.209Z" transform="translate(-45.685 -14.368)"/>
      <path id="Path_1431" data-name="Path 1431" class="cls-7" d="M80.171,270.5a39.959,39.959,0,0,1-3.065,4.454c-.657.53,1.04,5.559,3.028,5.647,1.121.05,1.576-1.235,1.576-1.235l-.506-1.446,3.551-4.749Z" transform="translate(-38.956 -10.143)"/>
      <path id="Path_1432" data-name="Path 1432" class="cls-2" d="M78.153,273.9a30.584,30.584,0,0,0,2.139,2.468,25.411,25.411,0,0,0,2.223,1.793s1.414,2.566,1.793,3.462c.86,1.992,1.827,4.213,1.687,5.33-.046.357-.851.737-1.52.53-2.789-.858-9.931-7.388-10.834-9.141C72.618,276.317,78.153,273.9,78.153,273.9Z" transform="translate(-39.868 -9.243)"/>
      <path id="Path_1433" data-name="Path 1433" class="cls-8" d="M97.486,227.062c-.259-.725-.508-1.394-.749-2.028-2.97.647-6.324,1.36-9.774,2.1l-.42,12.646c0-.976,2.589,20.174,2.589,20.174s-7.047,14-11.634,22.651a18.631,18.631,0,0,0,6.055,4.98c7.119-8.533,16.216-23.576,16.6-26.173C100.383,259.914,100.582,235.772,97.486,227.062Z" transform="translate(-38.814 -22.17)"/>
      <path id="Path_1434" data-name="Path 1434" class="cls-9" d="M76.585,230.282c.807,8.764,2.141,22.038,2.39,26.5-5.669.817-19.062,4.846-21.558,4.84a10.137,10.137,0,0,0-.813,6.8c.129.418,26.418,1.255,33.2-3.075,1.771-1.129,2.315-13.238,2.342-26.01l.42-12.646C86.819,227.918,81.533,229.119,76.585,230.282Z" transform="translate(-44.418 -21.731)"/>
      <path id="Path_1435" data-name="Path 1435" class="cls-10" d="M91.382,194.005l-6.452.972s-4.862.076-6.161.09c-.112,0-5.179,24.687-6.4,33.977s-.279,10.935-.279,10.935,8.581,1.93,14.929,1.366c6.6-.584,14.027-4.147,14.027-4.147s-7.649-17.445-8.764-23.02S91.382,194.005,91.382,194.005Z" transform="translate(-40.337 -30.379)"/>
      <path id="Path_1436" data-name="Path 1436" class="cls-11" d="M93.907,156.487s.213.978.261,1.309c.056.386.135,1.558.135,1.558s.036,4.1-.255,4.071A1.744,1.744,0,0,1,93,162.77c-.092-.257-.024-.8-.116-1.054a.653.653,0,0,0-.725-.416c-.307.09-.319,1.476-.319,1.476a4.552,4.552,0,0,0,.376,1.809,5.869,5.869,0,0,0,1.793,2.356,55.752,55.752,0,0,1-.261,5.83S91.9,188.833,91.81,189.7h0a4.347,4.347,0,0,0,1.914.548c2.036.727,2.47.241,4.5.819.1-2.564.185-20.662.175-22.508,0,0,.815-2.311,1.279-3.785a13.432,13.432,0,0,0,.339-3.516,14.2,14.2,0,0,0-.123-3.386c-.245-1.593-.721.026-.721.026s-.064,3.042-.295,2.988c-.179-.038-.05-1.7-.3-3.468-.066-.456-.131-.906-.2-1.319-.165-1.084-.857-1.295-.857-.133a11.338,11.338,0,0,0,.094,1.574,8.731,8.731,0,0,1,0,1.48c.01.894.03,1.546,0,1.526s-.165.151-.249-.331c-.1-.58-.05-1.854-.261-2.695-.12-.478-.311-1.488-.311-1.488a9.785,9.785,0,0,0-.661-1.472c-.51.022-.4,1.139-.153,1.767a7.658,7.658,0,0,0,.187,1.538s0,2.243-.3,2.243a26.032,26.032,0,0,1-.655-2.7c-.337-1.233-.87-2.422-1.115-2.39C93.672,155.079,93.907,156.487,93.907,156.487Z" transform="translate(-35.028 -40.814)"/>
      <path id="Path_1437" data-name="Path 1437" class="cls-11" d="M60.257,157s.05,1,.092,1.331c.05.388.281,1.538.281,1.538s1.046,3.962,1.321,3.86a1.768,1.768,0,0,0,.841-.908c.022-.267-.189-.779-.167-1.048a.655.655,0,0,1,.6-.6c.321,0,.7,1.339.7,1.339a4.546,4.546,0,0,1,.116,1.844,5.857,5.857,0,0,1-1.109,2.747,55.6,55.6,0,0,0,1.793,5.553s6.015,15.009,6.336,15.821h0a4.294,4.294,0,0,1-1.7,1.036c-1.773,1.237-2.319.884-4.127,1.976-.775-2.446-5.629-19.881-6.107-21.668,0,0-1.394-2.014-2.231-3.306a13.412,13.412,0,0,1-1.255-3.3,14.294,14.294,0,0,1-.773-3.3c-.185-1.607.7-.167.7-.167s.862,2.918,1.074,2.811c.161-.084-.4-1.649-.625-3.426-.058-.456-.114-.908-.161-1.323-.125-1.088.486-1.474.8-.355A11.228,11.228,0,0,1,56.97,159a9.556,9.556,0,0,0,.386,1.428c.227.864.38,1.5.4,1.47s.2.1.153-.384c-.056-.586-.442-1.793-.46-2.669-.01-.492-.092-1.518-.092-1.518a9.71,9.71,0,0,1,.249-1.593c.5-.114.685,1,.613,1.663a7.589,7.589,0,0,1,.225,1.532s.6,2.165.886,2.085a26.256,26.256,0,0,0-.082-2.789c0-1.279.2-2.568.446-2.6C60.109,155.583,60.257,157,60.257,157Z" transform="translate(-44.81 -40.532)"/>
      <path id="Path_1438" data-name="Path 1438" class="cls-9" d="M101.888,166.933s-.568,22.871-1.261,24.277c-1.01,2.048-8.226,16.65-8.226,16.65s5.428,22.707,7.711,30.561c.231.8,1.247,5.892,1.247,6.39,0,1.1-4.8,2.5-5.378,2.42-.51-.074-4.7-21.683-7.37-32.256a30.233,30.233,0,0,0-4.581-9.991l-1.86-2.643,11.025-13.345s2.39-21.114,2.39-22.434C95.584,166.215,101.195,165.634,101.888,166.933Z" transform="translate(-37.578 -37.754)"/>
      <path id="Path_1439" data-name="Path 1439" class="cls-9" d="M82.506,202.182l-11.047-16.66s-7.171-17.5-7.346-18.148-5.023.092-6.486.637c.665,2.1,4.649,16.064,6.356,20.245,1.422,3.488,7.294,18.307,7.294,18.307s3.725,8.5,3.145,15.07c-.966,10.909-2.88,26.631-2.414,27.1,2.894,1.823,12,1.757,12.7.625C92.469,236.861,82.506,202.182,82.506,202.182Z" transform="translate(-44.071 -37.491)"/>
      <path id="Path_1440" data-name="Path 1440" class="cls-7" d="M83.014,193.311l.482,3.563s1.076,5.135-.309,6.125-5.888-6.262-5.888-6.262l.476-9.029Z" transform="translate(-38.866 -32.045)"/>
      <path id="Path_1441" data-name="Path 1441" class="cls-12" d="M77.555,190.627a10.218,10.218,0,0,0,5.8,5.707l-.408-3.022L77.708,187.7Z" transform="translate(-38.799 -32.047)"/>
      <path id="Path_1442" data-name="Path 1442" class="cls-6" d="M71.851,183.369c0,1.374.781,2.49,1.747,2.49s1.747-1.115,1.747-2.49-.783-2.49-1.747-2.49S71.851,181.993,71.851,183.369Z" transform="translate(-40.308 -33.851)"/>
      <path id="Path_1443" data-name="Path 1443" class="cls-6" d="M76,178.923c0,.8.95,1.43,2.123,1.43s2.125-.639,2.125-1.43-.95-1.432-2.125-1.432S76,178.126,76,178.923Z" transform="translate(-39.211 -34.748)"/>
      <path id="Path_1444" data-name="Path 1444" class="cls-7" d="M81.18,180.251a4.765,4.765,0,0,1,6.233,3.785,36.3,36.3,0,0,1,.386,4.581c.076,4.161-2.08,8.212-3.97,8.212s-7.113-2.7-7.3-8.6C76.412,184.579,78.232,181.267,81.18,180.251Z" transform="translate(-39.072 -34.084)"/>
      <path id="Path_1445" data-name="Path 1445" class="cls-7" d="M78.2,187.223a1.386,1.386,0,1,1-1.358-1.661A1.534,1.534,0,0,1,78.2,187.223Z" transform="translate(-39.348 -32.612)"/>
      <path id="Path_1446" data-name="Path 1446" class="cls-6" d="M87.952,178.826c1.952,1.548,2.635,3.9,1.528,5.249s-3.585,1.2-5.541-.351-2.637-3.9-1.528-5.249S86,177.281,87.952,178.826Z" transform="translate(-37.655 -34.73)"/>
      <path id="Path_1447" data-name="Path 1447" class="cls-6" d="M83.4,179.823c0,.673-.811,1.217-1.813,1.217s-1.813-.544-1.813-1.217.813-1.217,1.813-1.217S83.4,179.146,83.4,179.823Z" transform="translate(-38.211 -34.453)"/>
      <path id="Path_1448" data-name="Path 1448" class="cls-6" d="M87.557,183.982a1.556,1.556,0,1,1-.449-1.1A1.548,1.548,0,0,1,87.557,183.982Z" transform="translate(-36.972 -33.445)"/>
      <path id="Path_1449" data-name="Path 1449" class="cls-2" d="M56.884,255.157a29.061,29.061,0,0,0-1.331,2.988,25.315,25.315,0,0,0-.685,2.773s-1.727,2.366-2.374,3.1c-1.442,1.623-3.207,3.542-4.277,3.888-.345.112-1.321-.181-1.311-.938.036-2.92,2.84-12.443,4.047-14C52.347,251.158,56.884,255.157,56.884,255.157Z" transform="translate(-46.907 -14.906)"/>
      <rect id="Rectangle_189" data-name="Rectangle 189" class="cls-13" width="111.606" height="204.194" rx="12.686" transform="translate(85.925 46.02)"/>
      <path id="Path_1450" data-name="Path 1450" class="cls-14" d="M130.637,322.862l79.675.362a21.015,21.015,0,0,0,21.15-20.6L233.9,120.11a20.554,20.554,0,0,0-20.6-20.777l-79.675-.363a21.016,21.016,0,0,0-21.15,20.6c-.1,7.464-2.39,178.316-2.438,182.513A20.546,20.546,0,0,0,130.637,322.862Zm-12.021-34.892c.05-3.689,1.709-127.816,2.257-168.807a12.12,12.12,0,0,1,12.2-11.883l80.575.368a11.854,11.854,0,0,1,11.88,11.983l-2.267,168.8a12.122,12.122,0,0,1-12.2,11.883l-80.577-.366a11.854,11.854,0,0,1-11.872-11.983Z" transform="translate(-30.205 -55.52)"/>
      <path id="Path_1451" data-name="Path 1451" class="cls-15" d="M94.383,112.667H167.8a7.8,7.8,0,0,1,7.8,7.8v21.423a7.8,7.8,0,0,1-7.8,7.8H94.383a7.8,7.8,0,0,1-7.8-7.8V120.469A7.8,7.8,0,0,1,94.383,112.667Z" transform="translate(10.673 29.806)"/>
      <path id="Path_1452" data-name="Path 1452" class="cls-16" d="M136.567,204.856V183.639H145.9c10.158.032,10.158,15.792,0,15.792h-3.918v5.426Zm9.306-16.367c-1.275-.03-2.637,0-3.88,0v6.061h3.88c2.96,0,3.141-6.031-.01-6.061Z" transform="translate(-23.188 -33.121)"/>
      <path id="Path_1453" data-name="Path 1453" class="cls-16" d="M165.26,202.252h-8.366l-1.243,2.669h-5.3v-.8l9.547-20.7h2.334l9.577,20.7v.8h-5.3Zm-4.213-10.244-2.364,5.577h4.78Z" transform="translate(-19.541 -33.178)"/>
      <path id="Path_1454" data-name="Path 1454" class="cls-16" d="M178.424,204.854H173.06v-8.912l-7.123-11.477v-.819h5.85l3.848,7.063h.213l3.848-7.063h5.88v.819l-7.153,11.487Z" transform="translate(-15.418 -33.119)"/>
      <path id="Path_1455" data-name="Path 1455" class="cls-16" d="M125.736,54.327h9.983v7.147a4.661,4.661,0,0,1-4.661,4.661H130.4a4.661,4.661,0,0,1-4.661-4.661V54.327Z" transform="translate(21.031 14.372)"/>
      <path id="Path_1456" data-name="Path 1456" class="cls-1" d="M117.843,54.327h9.981v7.147a4.661,4.661,0,0,1-4.661,4.661H122.5a4.661,4.661,0,0,1-4.661-4.661V54.327Z" transform="translate(18.942 14.372)"/>
      <path id="Path_1457" data-name="Path 1457" class="cls-16" d="M109.947,54.327h9.981v7.147a4.661,4.661,0,0,1-4.661,4.661h-.661a4.661,4.661,0,0,1-4.661-4.661V54.327Z" transform="translate(16.853 14.372)"/>
      <path id="Path_1458" data-name="Path 1458" class="cls-1" d="M102.056,54.327h9.979v7.147a4.661,4.661,0,0,1-4.661,4.661h-.661a4.661,4.661,0,0,1-4.661-4.661V54.327Z" transform="translate(14.765 14.372)"/>
      <path id="Path_1459" data-name="Path 1459" class="cls-16" d="M94.16,54.327h9.983v7.147a4.661,4.661,0,0,1-4.661,4.661h-.661a4.661,4.661,0,0,1-4.661-4.661V54.327Z" transform="translate(12.678 14.372)"/>
      <path id="Path_1460" data-name="Path 1460" class="cls-1" d="M165.188,54.327h9.981v7.147a4.661,4.661,0,0,1-4.661,4.661h-.661a4.661,4.661,0,0,1-4.661-4.661V54.327Z" transform="translate(31.467 14.372)"/>
      <path id="Path_1461" data-name="Path 1461" class="cls-16" d="M157.293,54.327h9.983v7.147a4.661,4.661,0,0,1-4.661,4.661h-.657a4.661,4.661,0,0,1-4.661-4.661V54.327Z" transform="translate(29.379 14.372)"/>
      <path id="Path_1462" data-name="Path 1462" class="cls-1" d="M149.4,54.327h9.981v7.147a4.661,4.661,0,0,1-4.661,4.661h-.661a4.661,4.661,0,0,1-4.661-4.661V54.327Z" transform="translate(27.291 14.372)"/>
      <path id="Path_1463" data-name="Path 1463" class="cls-16" d="M141.505,54.327h9.981v7.147a4.661,4.661,0,0,1-4.661,4.661h-.661a4.661,4.661,0,0,1-4.661-4.661V54.327Z" transform="translate(25.202 14.372)"/>
      <path id="Path_1464" data-name="Path 1464" class="cls-1" d="M133.629,54.327h9.981v7.147a4.661,4.661,0,0,1-4.661,4.661h-.661a4.661,4.661,0,0,1-4.661-4.661V54.327Z" transform="translate(23.119 14.372)"/>
      <path id="Path_1465" data-name="Path 1465" class="cls-1" d="M86.267,54.327h9.981v7.147a4.661,4.661,0,0,1-4.661,4.661h-.661a4.661,4.661,0,0,1-4.661-4.661V54.327Z" transform="translate(10.589 14.372)"/>
      <path id="Path_1466" data-name="Path 1466" class="cls-16" d="M78.373,54.327h9.981v7.147a4.661,4.661,0,0,1-4.661,4.661h-.661a4.661,4.661,0,0,1-4.661-4.661V54.327Z" transform="translate(8.501 14.372)"/>
      <path id="Path_1467" data-name="Path 1467" class="cls-1" d="M70.48,54.327h9.981v7.147A4.661,4.661,0,0,1,75.8,66.135h-.661a4.661,4.661,0,0,1-4.661-4.661V54.327Z" transform="translate(6.413 14.372)"/>
      <path id="Path_1468" data-name="Path 1468" class="cls-10" d="M126.382,40.76h-7.1l-1.442,17.156h9.981Z" transform="translate(18.943 10.783)"/>
      <path id="Path_1469" data-name="Path 1469" class="cls-17" d="M121.373,40.76h-7.1l-4.328,17.156h9.983Z" transform="translate(16.854 10.783)"/>
      <path id="Path_1470" data-name="Path 1470" class="cls-10" d="M116.364,40.76h-7.1l-7.213,17.156h9.981Z" transform="translate(14.766 10.783)"/>
      <path id="Path_1471" data-name="Path 1471" class="cls-17" d="M111.356,40.76h-7.1L94.16,57.916h9.983Z" transform="translate(12.678 10.783)"/>
      <path id="Path_1472" data-name="Path 1472" class="cls-10" d="M106.347,40.76h-7.1L86.267,57.916h9.981Z" transform="translate(10.59 10.783)"/>
      <path id="Path_1473" data-name="Path 1473" class="cls-17" d="M101.336,40.76h-7.1L78.372,57.916h9.983Z" transform="translate(8.501 10.783)"/>
      <path id="Path_1474" data-name="Path 1474" class="cls-10" d="M96.328,40.76h-7.1L70.479,57.916H80.46Z" transform="translate(6.413 10.783)"/>
      <path id="Path_1475" data-name="Path 1475" class="cls-10" d="M148.494,40.76h-7.1l10.123,17.156H161.5Z" transform="translate(25.173 10.783)"/>
      <path id="Path_1476" data-name="Path 1476" class="cls-17" d="M142.908,40.76h-7.1l7.2,17.156h9.983Z" transform="translate(23.696 10.783)"/>
      <path id="Path_1477" data-name="Path 1477" class="cls-10" d="M159.718,40.76h-7.1l15.891,17.156h9.981Z" transform="translate(28.143 10.783)"/>
      <path id="Path_1478" data-name="Path 1478" class="cls-17" d="M154.105,40.76h-7.1l13,17.156H170Z" transform="translate(26.659 10.783)"/>
      <path id="Path_1479" data-name="Path 1479" class="cls-10" d="M137.3,40.76h-7.1l4.34,17.156h9.981Z" transform="translate(22.211 10.783)"/>
      <path id="Path_1480" data-name="Path 1480" class="cls-17" d="M131.683,40.76h-7.1l1.454,17.156h9.983Z" transform="translate(20.727 10.783)"/>
      <path id="Path_1481" data-name="Path 1481" class="cls-7" d="M239.511,261.95s6.1,4.4,7.061,5.709c1.394,1.89-10.336,5.426-9.057,3.213.295-.51,1.139-2.223,1.175-2.39.2-.9-2.289-3.328-2.289-3.328Z" transform="translate(3.224 -12.404)"/>
      <path id="Path_1482" data-name="Path 1482" class="cls-18" d="M235.078,273.895l4.143-5.852a11.241,11.241,0,0,0,5.241-3.585,9.677,9.677,0,0,1,3.854,2.884,67.8,67.8,0,0,1-7.047,6.352,19.567,19.567,0,0,1-6.033,3.426C231.735,278.3,235.078,273.895,235.078,273.895Z" transform="translate(2.492 -11.741)"/>
      <path id="Path_1483" data-name="Path 1483" class="cls-11" d="M285.467,198.685s-.751.663-1.016.866c-.311.235-1.295.876-1.295.876s-3.561,2.024-3.681,1.757a1.772,1.772,0,0,1,.06-1.237c.175-.2.689-.41.864-.613a.649.649,0,0,0,0-.835c-.225-.227-1.442.438-1.442.438a4.387,4.387,0,0,0-1.394,1.209,6.145,6.145,0,0,0-1.2,2.713,55.329,55.329,0,0,1-5.221,2.609s-14.939,6.207-15.736,6.545h0a4.332,4.332,0,0,0,.452,1.94c.357,2.133,1,2.275,1.476,4.33,2.291-1.157,18.142-9.89,19.753-10.8,0,0,2.414-.412,3.922-.721a13.462,13.462,0,0,0,3.237-1.414,14.1,14.1,0,0,0,2.9-1.755c1.279-1-.373-.618-.373-.618s-2.689,1.424-2.759,1.2c-.054-.175,1.458-.868,2.884-1.95.367-.279.729-.556,1.058-.811.866-.673.715-1.378-.3-.815a11.278,11.278,0,0,0-1.331.847,9.2,9.2,0,0,1-1.293.723,11.753,11.753,0,0,1-1.335.737c0-.042-.213-.07.167-.376.458-.37,1.594-.946,2.229-1.54.359-.337,1.149-1,1.149-1a9.918,9.918,0,0,0,.964-1.293c-.269-.436-1.2.2-1.619.725a7.807,7.807,0,0,0-1.251.912s-1.958,1.094-2.109.825a25.32,25.32,0,0,1,2.044-1.886c.912-.894,1.691-1.942,1.548-2.141C286.591,197.8,285.467,198.685,285.467,198.685Z" transform="translate(8.247 -29.307)"/>
      <path id="Path_1484" data-name="Path 1484" class="cls-8" d="M254.438,226.416l-.964,4.78-24.257,22.064,17.361,17.574-4.687,4.78s-25.645-18.831-26.569-21.3c-1.422-3.8,18.383-28.966,18.383-28.966Z" transform="translate(-2.373 -22.087)"/>
      <path id="Path_1485" data-name="Path 1485" class="cls-7" d="M260.332,271.982s6.1,4.4,7.061,5.711c1.394,1.89-10.336,5.424-9.055,3.211.293-.508,1.137-2.221,1.173-2.39.2-.9-2.289-3.328-2.289-3.328Z" transform="translate(8.731 -9.75)"/>
      <path id="Path_1486" data-name="Path 1486" class="cls-18" d="M255.9,283.932l4.141-5.854a10.549,10.549,0,0,0,5.408-3.48,8.843,8.843,0,0,1,3.687,2.777,67.361,67.361,0,0,1-7.045,6.352,19.551,19.551,0,0,1-6.033,3.426C252.551,288.336,255.9,283.932,255.9,283.932Z" transform="translate(7.999 -9.058)"/>
      <path id="Path_1487" data-name="Path 1487" class="cls-9" d="M249.532,228.34l-1.09,30.107,20.516,25.145-4.808,4.432s-23.809-20.435-26.424-26.127c-1.621-3.53-7.077-35.443-7.077-35.443Z" transform="translate(1.702 -21.795)"/>
      <path id="Path_1488" data-name="Path 1488" class="cls-10" d="M230.135,235.164c1.974-4.452,1.745-36.371,9.424-43.849,2.7.456,4.627.711,5.079.831.4,3.289.841,15.355,1.111,26.414.181,7.37,0,15.092.9,19.166C247.213,240.249,228.332,239.231,230.135,235.164Z" transform="translate(1.533 -31.091)"/>
      <path id="Path_1489" data-name="Path 1489" class="cls-19" d="M248.176,193.619c2.155.492,3.741.837,6.573,5.01,2.7,4,8.708,13.477,8.708,13.477l15.817-7.027.741,8.013s-17.895,9.3-20.419,8.461-9.623-11.214-10.159-11.913c-.124-.165.6,11.081.6,12.879s3.43,17.441,3.43,17.441-8.7,2.143-10.4-1.749c-5.209-11.931-1.209-46.249-1.209-46.249S246.624,193.267,248.176,193.619Z" transform="translate(4.278 -30.919)"/>
      <path id="Path_1490" data-name="Path 1490" class="cls-7" d="M221.857,167.094a4.712,4.712,0,0,0,.693-2.864l.145-1.167c-.283-.074-5.611-.124-7.193.046a2.909,2.909,0,0,0-.024,1.213c.4,1.257,3.163,9.408,3.163,9.408l4.516-.508S221.518,168.389,221.857,167.094Z" transform="translate(-2.325 -38.583)"/>
      <path id="Path_1491" data-name="Path 1491" class="cls-19" d="M241.162,198.86s-3.117,8.87-5.681,7.591-16.977-15.969-17.118-16.678-1.141-18.743-1.141-18.743l5.7-1.135,3.279,14.768s10.545,10.081,12.682,11.075a3.958,3.958,0,0,1,2.279,3.123Z" transform="translate(-1.851 -36.757)"/>
      <path id="Path_1492" data-name="Path 1492" class="cls-19" d="M230.236,237.56a9.7,9.7,0,0,1-3.512-.584s3.287-18.524,5.2-36.885c.755-7.254,1.454-10.228,4.448-9.7.864.151,3.209,1.046,4.061,1.2-7.521,21.279-7.547,37.66-8.613,42.409C231.282,236.369,230.816,237.574,230.236,237.56Z" transform="translate(0.663 -31.352)"/>
      <path id="Path_1493" data-name="Path 1493" class="cls-7" d="M238.357,189.785l-.8,3.215s-.181,2.789,1.119,3.05c1.566.3,3.894-2.04,3.894-2.04l1.349-9.067Z" transform="translate(3.528 -32.776)"/>
      <path id="Path_1494" data-name="Path 1494" class="cls-7" d="M238.357,189.785l-.8,3.215s-.181,2.789,1.119,3.05c1.566.3,3.894-2.04,3.894-2.04l1.349-9.067Z" transform="translate(3.528 -32.776)"/>
      <path id="Path_1495" data-name="Path 1495" class="cls-12" d="M243.877,184.976l-5.563,4.8-.6,2.4C239.851,191.667,242.883,189.326,243.877,184.976Z" transform="translate(3.571 -32.767)"/>
      <path id="Path_1496" data-name="Path 1496" class="cls-7" d="M239.084,178.378a3.293,3.293,0,0,0-3.03,2.273,28.583,28.583,0,0,0-1.213,4.655c-.6,3.486,1.394,6.679,3.125,6.934s5.842-.89,6.752-5.83c.4-2.117.9-4.894-.837-6.352A7.836,7.836,0,0,0,239.084,178.378Z" transform="translate(2.782 -34.513)"/>
      <path id="Path_1497" data-name="Path 1497" class="cls-6" d="M244.208,191.119s6.089-5.428,6.356-9.669-3.651-6.511-7-6.629a22.684,22.684,0,0,0-4.1.211c-3.354.422-5.527,1.91-4.763,4.659,1.028,3.689,7.989.576,9.414,1.721,1.175.946-.729,3.219.412,4.087,1.072.815.526.538.171,2.089a27.074,27.074,0,0,0-.492,3.53Z" transform="translate(2.733 -35.458)"/>
      <path id="Path_1498" data-name="Path 1498" class="cls-7" d="M244.52,184.242c-.151,1.016-.773,1.767-1.394,1.675s-1-1-.841-2,.771-1.765,1.394-1.675S244.669,183.22,244.52,184.242Z" transform="translate(4.77 -33.494)"/>
      <path id="Path_1499" data-name="Path 1499" class="cls-12" d="M221.014,163.46a6.334,6.334,0,0,0-1.645,1.992s-2.763-1.293-2.743-1.823c.028-.7,2.789.225,2.789.225Z" transform="translate(-2.008 -38.484)"/>
      <path id="Path_1500" data-name="Path 1500" class="cls-20" d="M264.827,153.375l-44.871,23.106a4.918,4.918,0,0,1-6.623-2.119l-10.543-20.482a4.916,4.916,0,0,1,2.119-6.623l44.871-23.106a4.918,4.918,0,0,1,6.623,2.121l10.545,20.478A4.918,4.918,0,0,1,264.827,153.375Z" transform="translate(-5.813 -49.003)"/>
      <rect id="Rectangle_190" data-name="Rectangle 190" class="cls-18" width="60.304" height="6.987" transform="translate(204.083 118.702) rotate(-27.24)"/>
      <path id="Path_1501" data-name="Path 1501" class="cls-7" d="M220.857,161.852l.647,1.593-1.486.767s.378-.753.243-.96C219.521,162.119,220.15,161.007,220.857,161.852Z" transform="translate(-1.134 -38.963)"/>
      <path id="Path_1502" data-name="Path 1502" class="cls-3" d="M231.051,112.332l-1.755-4.952-4.713,1.329-1.944-4.8-4.661.715-2.042-3.356-1.7,1.034,2.733,4.488,4.416-.675,2.022,4.994,4.635-1.3,1.589,4.488Z" transform="translate(44.444 26.79)"/>
    </g>
  </g>
</svg>
