<svg id="clock-svgrepo-com" xmlns="http://www.w3.org/2000/svg" width="24.242" height="24.243" viewBox="0 0 24.242 24.243">
  <path id="Path_265" data-name="Path 265" d="M12.126,0A12.122,12.122,0,1,1,0,12.121,12.121,12.121,0,0,1,12.126,0Z" transform="translate(-0.005)" fill="#ebebeb"/>
  <path id="Path_266" data-name="Path 266" d="M168.722,81.957h-4.545v-5.3a.758.758,0,0,0-1.515,0v6.061a.757.757,0,0,0,.758.758h5.3a.757.757,0,1,0,0-1.514Z" transform="translate(-151.297 -70.593)" fill="#324d5b"/>
  <path id="Path_267" data-name="Path 267" d="M12.126,0A12.122,12.122,0,1,0,24.247,12.121,12.121,12.121,0,0,0,12.126,0Zm0,21.97a9.849,9.849,0,1,1,9.848-9.849A9.86,9.86,0,0,1,12.126,21.97Z" transform="translate(-0.005)" fill="#e2574c"/>
</svg>
