<svg xmlns="http://www.w3.org/2000/svg" width="22" height="16.5" viewBox="0 0 22 16.5">
  <g id="Group_251" data-name="Group 251" transform="translate(-38 -770.75)">
    <path id="Path_183" data-name="Path 183" d="M53.125,775.562a.687.687,0,0,1,.688-.687h2.75a.687.687,0,0,1,.688.687v1.376a.687.687,0,0,1-.687.687h-2.75a.687.687,0,0,1-.687-.687Z" fill="#0b535b"/>
    <path id="Path_184" data-name="Path 184" d="M40.75,770.75A2.749,2.749,0,0,0,38,773.5v11a2.749,2.749,0,0,0,2.75,2.75h16.5A2.749,2.749,0,0,0,60,784.5v-11a2.749,2.749,0,0,0-2.75-2.75Zm17.875,2.75v6.875H39.375V773.5a1.375,1.375,0,0,1,1.375-1.375h16.5a1.375,1.375,0,0,1,1.375,1.375ZM57.25,785.875H40.75a1.375,1.375,0,0,1-1.375-1.375v-1.375h19.25V784.5a1.375,1.375,0,0,1-1.375,1.375Z" fill="#0b535b"/>
  </g>
</svg>
