<svg xmlns="http://www.w3.org/2000/svg" width="21" height="21" viewBox="0 0 21 21">
  <path id="Path_213" data-name="Path 213" d="M308.5,355a10.5,10.5,0,1,0-7.425-3.075A10.5,10.5,0,0,0,308.5,355Zm1.221-12.353-1.313,6.175c-.092.446.038.7.4.7a1.454,1.454,0,0,0,.9-.323l-.116.546a2.718,2.718,0,0,1-1.923.785c-.922,0-1.315-.554-1.06-1.732l.968-4.551c.084-.385.008-.524-.376-.617l-.592-.106.107-.5,3.006-.376Zm-1.221-1.428a1.313,1.313,0,1,1,.928-.385,1.314,1.314,0,0,1-.928.385Z" transform="translate(-298 -334)" fill="#0b535b"/>
</svg>
