<svg xmlns="http://www.w3.org/2000/svg" width="20.312" height="20.312" viewBox="0 0 20.312 20.312">
  <path id="Path_212" data-name="Path 212" d="M341.5,334.344A10.156,10.156,0,1,0,351.656,344.5,10.168,10.168,0,0,0,341.5,334.344Zm3.677,12.729a.785.785,0,0,1,.178.253.786.786,0,0,1,.008.607.774.774,0,0,1-.43.43.786.786,0,0,1-.607-.008.785.785,0,0,1-.253-.178l-2.573-2.572-2.573,2.572a.781.781,0,0,1-1.1-1.1l2.572-2.573-2.572-2.573a.781.781,0,0,1,1.1-1.1l2.573,2.572,2.573-2.572a.781.781,0,0,1,1.1,1.1l-2.572,2.573Z" transform="translate(-331.344 -334.344)" fill="#c2c2c2"/>
</svg>
