<svg xmlns="http://www.w3.org/2000/svg" width="280.2" height="241.618" viewBox="0 0 280.2 241.618">
  <defs>
    <style>
      .cls-1 {
        fill: #31454a;
      }

      .cls-2 {
        fill: #00b1c3;
      }

      .cls-3 {
        fill: #5094d0;
      }

      .cls-4 {
        fill: #58b3e6;
      }

      .cls-5 {
        fill: #4382bb;
      }

      .cls-6 {
        fill: #fff;
      }

      .cls-7 {
        fill: #f1bf5b;
      }

      .cls-8 {
        fill: #e99352;
      }

      .cls-9 {
        fill: #5ab676;
      }

      .cls-10 {
        fill: #4ba364;
      }

      .cls-11 {
        opacity: 0.44;
      }

      .cls-12 {
        fill: #1d1d1b;
      }

      .cls-13 {
        fill: #fcd2a0;
      }

      .cls-14 {
        fill: #7bbe75;
      }

      .cls-15 {
        fill: #f7af7e;
      }

      .cls-16 {
        fill: #d2763e;
      }

      .cls-17 {
        fill: #fecb50;
      }

      .cls-18 {
        fill: #bf6718;
      }

      .cls-19 {
        fill: #f6a33e;
      }

      .cls-20 {
        fill: #fff151;
      }

      .cls-21 {
        fill: #f69f1d;
      }

      .cls-22 {
        fill: #d4831a;
      }

      .cls-23 {
        fill: #44cfb0;
      }

      .cls-24 {
        fill: #02ecb7;
      }
    </style>
  </defs>
  <g id="FFFF" transform="translate(0 0.02)">
    <path id="Path_1503" data-name="Path 1503" class="cls-1" d="M961.261,1633.787c0,7.316-36.772,13.247-82.132,13.247S797,1641.1,797,1633.787s36.772-13.248,82.132-13.248S961.261,1626.471,961.261,1633.787Z" transform="translate(-694.977 -1418.892)"/>
    <ellipse id="Ellipse_68" data-name="Ellipse 68" class="cls-1" cx="69.982" cy="10.049" rx="69.982" ry="10.049" transform="translate(15.334 221.501)"/>
    <path id="Path_1504" data-name="Path 1504" class="cls-2" d="M409.98,777.809a5.757,5.757,0,0,1-2.989,7.569l-94.637,41.057a5.758,5.758,0,0,1-7.57-2.989l-25.358-58.45a5.757,5.757,0,0,1,3-7.57l94.637-41.057a5.755,5.755,0,0,1,7.569,2.989Z" transform="translate(-251.743 -644.89)"/>
    <path id="Path_1505" data-name="Path 1505" class="cls-3" d="M409.98,777.809a5.757,5.757,0,0,1-2.989,7.569l-94.637,41.057a5.758,5.758,0,0,1-7.57-2.989l-25.358-58.45a5.757,5.757,0,0,1,3-7.57l94.637-41.057a5.755,5.755,0,0,1,7.569,2.989Z" transform="translate(-251.743 -644.89)"/>
    <path id="Path_1506" data-name="Path 1506" class="cls-4" d="M916.771,716.367l-7,3.033a5.754,5.754,0,0,1,7.569,2.989L942.7,780.84a5.756,5.756,0,0,1-2.988,7.569l7-3.033a5.756,5.756,0,0,0,2.99-7.569l-25.358-58.45A5.755,5.755,0,0,0,916.771,716.367Z" transform="translate(-791.461 -644.891)"/>
    <path id="Path_1507" data-name="Path 1507" class="cls-5" d="M316.686,1060.061a5.753,5.753,0,0,1-7.568-2.99L283.928,999l-1.469.647a5.756,5.756,0,0,0-2.991,7.57l25.358,58.45a5.758,5.758,0,0,0,7.57,2.99l94.63-41.062a5.756,5.756,0,0,0,2.989-7.569l-.168-.386Z" transform="translate(-251.779 -887.113)"/>
    <path id="Path_1508" data-name="Path 1508" class="cls-6" d="M372.3,1049.016l.469,1.079a2.08,2.08,0,1,1-3.807,1.652l-1.833-4.224a2.078,2.078,0,1,1,3.8-1.652l.342.79-1.207.523-.377-.867c-.251-.578-.6-.69-1.011-.514s-.566.51-.315,1.088l1.9,4.387c.253.578.6.679,1.011.5s.57-.5.319-1.077l-.5-1.155Z" transform="translate(-326.958 -925.983)"/>
    <path id="Path_1509" data-name="Path 1509" class="cls-6" d="M400.774,1039.009a2.765,2.765,0,0,1-.549-.947l-.555-1.277c-.326-.754-.7-.921-1.282-.672l-.44.194,1.433,3.307-1.277.553-3.524-8.123,1.927-.836a1.78,1.78,0,0,1,2.7,1.048l.279.638a1.769,1.769,0,0,1-.121,2.01c.754-.01,1.229.514,1.6,1.362l.543,1.252a2.6,2.6,0,0,0,.568.926Zm-4.413-6.354,1.082,2.484.5-.215c.477-.208.676-.542.393-1.192l-.347-.8c-.251-.578-.559-.75-1.011-.553Z" transform="translate(-350.674 -914.443)"/>
    <path id="Path_1510" data-name="Path 1510" class="cls-6" d="M429.641,1018.48l1.753-.761.5,1.155-1.753.761,1.033,2.38,2.205-.959.5,1.155-3.48,1.511-3.525-8.124,3.483-1.5.5,1.155-2.205.955Z" transform="translate(-378.309 -900.033)"/>
    <path id="Path_1511" data-name="Path 1511" class="cls-6" d="M456.45,1005.14l2.022-.877a1.9,1.9,0,0,1,2.774,1.181l1.782,4.11a1.9,1.9,0,0,1-1.031,2.832l-2.022.875Zm1.779.607,2.519,5.8.722-.313c.406-.175.56-.49.308-1.07l-1.833-4.223c-.251-.578-.586-.685-.992-.508Z" transform="translate(-403.609 -891.415)"/>
    <path id="Path_1512" data-name="Path 1512" class="cls-6" d="M489.23,994.224l1.277-.555,3.524,8.125-1.277.553Z" transform="translate(-431.655 -882.553)"/>
    <path id="Path_1513" data-name="Path 1513" class="cls-6" d="M501.92,981.844l3.947-1.714.5,1.155-1.334.578,3.021,6.965-1.277.555-3.021-6.961-1.334.578Z" transform="translate(-442.512 -870.969)"/>
    <path id="Path_1514" data-name="Path 1514" class="cls-6" d="M554.312,970.055l.468,1.079a2.077,2.077,0,1,1-3.8,1.654l-1.833-4.226a2.078,2.078,0,1,1,3.8-1.652l.341.789-1.206.524-.378-.866c-.251-.578-.6-.689-1.011-.511s-.566.505-.315,1.086l1.9,4.387c.251.578.6.679,1,.5s.578-.5.319-1.079l-.5-1.155Z" transform="translate(-482.691 -858.424)"/>
    <path id="Path_1515" data-name="Path 1515" class="cls-6" d="M589.922,958.67l-1.288.56-.859-1.379-1.567.679.42,1.571-1.173.507-2.225-8.688,1.869-.81Zm-4.031-1.311,1.23-.536-2.4-3.841Z" transform="translate(-512.08 -846.14)"/>
    <path id="Path_1516" data-name="Path 1516" class="cls-6" d="M615.456,945.912a2.721,2.721,0,0,1-.55-.946l-.553-1.277c-.328-.754-.7-.923-1.284-.672l-.442.2,1.436,3.306-1.275.556-3.527-8.125,1.928-.836a1.78,1.78,0,0,1,2.7,1.048l.277.638a1.764,1.764,0,0,1-.121,2.01c.755-.01,1.229.516,1.6,1.362l.544,1.255a2.628,2.628,0,0,0,.566.926Zm-4.415-6.354,1.083,2.5.5-.218c.475-.207.674-.542.393-1.191l-.348-.8c-.251-.578-.559-.75-1.011-.553Z" transform="translate(-534.35 -834.797)"/>
    <path id="Path_1517" data-name="Path 1517" class="cls-6" d="M641.56,924.836l2.022-.877a1.9,1.9,0,0,1,2.774,1.183l1.781,4.11a1.9,1.9,0,0,1-1.033,2.833l-2.022.877Zm1.781.608,2.517,5.8.722-.313c.4-.176.559-.491.306-1.072l-1.834-4.22c-.251-.578-.586-.683-.991-.508Z" transform="translate(-561.986 -822.709)"/>
    <rect id="Rectangle_191" data-name="Rectangle 191" class="cls-6" width="35.346" height="1.626" transform="translate(107.007 133.784) rotate(-23.45)"/>
    <rect id="Rectangle_192" data-name="Rectangle 192" class="cls-6" width="17.674" height="1.626" transform="translate(126.456 134.205) rotate(-23.45)"/>
    <path id="Path_1518" data-name="Path 1518" class="cls-6" d="M585.829,943.759,565.7,952.5,565.05,951l20.132-8.734Z" transform="translate(-483.447 -806.206)"/>
    <rect id="Rectangle_193" data-name="Rectangle 193" class="cls-6" width="63.043" height="1.626" transform="translate(78.26 137.105) rotate(-23.45)"/>
    <path id="Path_1519" data-name="Path 1519" class="cls-6" d="M714.107,860.468a8.4,8.4,0,1,1,4.246-4.125,8.4,8.4,0,0,1-4.246,4.125Zm-6.354-14.653a7.585,7.585,0,1,0,4.847-.4,7.5,7.5,0,0,0-4.848.4Z" transform="translate(-613.995 -754.809)"/>
    <path id="Path_1520" data-name="Path 1520" class="cls-6" d="M738.576,864.142c-1.693.734-4.259-2.754-5.921-6.58s-2.455-8.087-.76-8.809,4.259,2.753,5.921,6.578S740.27,863.407,738.576,864.142Zm-6.354-14.65c-.765.332-.686,3.441,1.183,7.747s4.083,6.489,4.848,6.156.686-3.439-1.183-7.747S732.987,849.16,732.222,849.492Z" transform="translate(-638.467 -758.482)"/>
    <path id="Path_1521" data-name="Path 1521" class="cls-6" d="M715.506,881.09c-2.662,1.155-7.879,2.92-8.568,1.33s4.164-4.2,6.825-5.343,7.881-2.919,8.57-1.33S718.169,879.935,715.506,881.09Zm-1.418-3.274c-4.588,1.991-6.568,3.9-6.4,4.281s2.913.238,7.5-1.753,6.568-3.9,6.4-4.278S718.673,875.827,714.088,877.816Z" transform="translate(-617.865 -781.119)"/>
    <path id="Path_1522" data-name="Path 1522" class="cls-6" d="M716.918,851.914a7.754,7.754,0,0,1-5.478.261l.25-.773a6.932,6.932,0,0,0,8.42-3.652l.735.347A7.75,7.75,0,0,1,716.918,851.914Z" transform="translate(-621.774 -757.707)"/>
    <path id="Path_1523" data-name="Path 1523" class="cls-6" d="M741.79,924.785l-.76-.289a7.755,7.755,0,0,1,10.206-4.426l-.31.751a6.945,6.945,0,0,0-9.136,3.964Z" transform="translate(-647.09 -819.082)"/>
    <path id="Path_1524" data-name="Path 1524" class="cls-7" d="M464.79,1148.589a1.745,1.745,0,0,1-.906,2.293l-13.164,5.71a1.743,1.743,0,0,1-2.293-.906l-4.935-11.377a1.742,1.742,0,0,1,.9-2.292l13.165-5.712a1.745,1.745,0,0,1,2.293.906Z" transform="translate(-392.399 -1004.467)"/>
    <rect id="Rectangle_194" data-name="Rectangle 194" class="cls-8" width="0.813" height="15.889" transform="translate(53.393 136.941) rotate(-23.42)"/>
    <path id="Path_1525" data-name="Path 1525" class="cls-8" d="M445.568,930.868l-.745.322L438.5,916.615l.745-.325Z" transform="translate(-375.173 -783.978)"/>
    <path id="Path_1526" data-name="Path 1526" class="cls-8" d="M371.542,922.445l-16.348,7.092-.323-.748,16.347-7.089Z" transform="translate(-303.62 -788.607)"/>
    <rect id="Rectangle_195" data-name="Rectangle 195" class="cls-8" width="17.82" height="0.812" transform="translate(55.554 150.136) rotate(-23.45)"/>
    <path id="Path_1527" data-name="Path 1527" class="cls-8" d="M496.175,1182.788l-6.21,2.7-2.695-6.21,6.21-2.695Zm-5.791,1.628,4.721-2.049-2.048-4.715-4.722,2.048Z" transform="translate(-429.978 -1039.048)"/>
    <path id="Path_1528" data-name="Path 1528" class="cls-8" d="M381.129,962.814l-3.059-1.33.323-.744,3.06,1.332Z" transform="translate(-323.47 -822.009)"/>
    <rect id="Rectangle_196" data-name="Rectangle 196" class="cls-8" width="3.336" height="0.813" transform="matrix(0.34, -0.94, 0.94, 0.34, 58.643, 149.817)"/>
    <rect id="Rectangle_197" data-name="Rectangle 197" class="cls-8" width="3.564" height="0.813" transform="translate(62.917 137.899) rotate(-66.64)"/>
    <path id="Path_1529" data-name="Path 1529" class="cls-8" d="M457.066,993.288l-3.356-1.2.274-.765,3.355,1.2Z" transform="translate(-388.186 -848.173)"/>
    <path id="Path_1530" data-name="Path 1530" class="cls-9" d="M814.194,502.217c2.433.056,4.419-1.428,8.027-4.146,3.008-2.266,8.809-7.29,12.98-5.25,6.831,3.342-2.686,16.77-4.839,21.248-3.53,7.339-8.954,16.228-9.832,24.09-1.155,10.246,8.164,13.757,15.076,18.966a100.252,100.252,0,0,1,34.031,46.136c4.819,13.343,11.177,39.1,2.65,51.784,2.022,5.127,4.174,5.777,6.3,11.3-1.667,3.634-6.376,2.516-9.614.809-6.616-3.485-12.752-8.954-20.3-5.65-3.42,1.5-9.279,2.789-12.495,4.572-3.788,2.1-8.616,3.033-12.941,3.917-13.024,2.654-25.041,1.155-37.658-2.049-8.586-2.175-19.013-7.007-27.964-6.574-9.936.481-19.182-1.99-28.143,2.153-3.345,1.545-6.531,5.423-8.069,1.746-1.444-3.456,2.192-8.628,3.632-11.428,4.333-8.453,7.326-7.612,7.83-17.206.524-9.991-1.086-19.743.12-29.577,2.533-20.678,18.774-36.333,30.01-52.216,5.732-8.108,11.94-10.08,7.4-19.641-4.881-10.267-11.1-25.218-18.158-34.164-1.356-1.721,13.5-9.862,14.346-10.148,13.894-4.718,29.112,1.8,41,8.752C810.5,501.355,812.463,502.177,814.194,502.217Z" transform="translate(-630.009 -451.008)"/>
    <path id="Path_1531" data-name="Path 1531" class="cls-10" d="M790.367,546.048c.54-.97,1.846-5.741,2.6-6.126a8.2,8.2,0,0,0-2.68,2.218c-1.961,2.507-6.877,9.387-9.845,3.521-2.509-4.956-.908-11.881.136-17.088.594-2.956,4.152-11.244,1.29-13.6-3.079-2.536-8.277-.9-11.932-1.573-6.424-1.183-11.8-7.966-7.329-14.195,5.044-7.04,14.023-7.309,21.768-5.219,4.89,1.32,9.328,4.4,14.218,5.463A9.1,9.1,0,0,0,805.4,498.4c-11.529-6.448-25.747-11.926-38.8-7.494-.846.289-15.7,8.427-14.346,10.148,7.053,8.945,13.276,23.9,18.158,34.164,4.543,9.558-1.665,11.53-7.4,19.641C751.776,570.745,735.536,586.4,733,607.075c-1.206,9.833.4,19.586-.12,29.577-.5,9.594-3.493,8.753-7.83,17.206-1.444,2.8-5.079,7.972-3.632,11.428,1.538,3.677,4.724-.2,8.069-1.746,8.954-4.143,18.207-1.672,28.143-2.153,8.954-.433,19.378,4.4,27.964,6.574,12.618,3.2,24.635,4.7,37.658,2.049,4.333-.884,9.153-1.817,12.941-3.917,3.216-1.784,9.075-3.073,12.5-4.572,7.547-3.307,13.684,2.166,20.3,5.65,3.238,1.707,7.943,2.825,9.614-.809-2.122-5.524-4.273-6.169-6.3-11.3,8.521-12.689,2.166-38.441-2.65-51.784a100.283,100.283,0,0,0-23.82-37.29c-1.713,6.973,4.932,15.854,8.411,21.271,8.846,13.767,22.318,40.525,13.406,56.919-2.311,4.252-2.877,6.769-6.713,6.9a10.505,10.505,0,0,1-6.675.706c-7.193-1.254-14.531-5.995-22-3.789-9.612,2.835-16.656,10.831-26.7,12.961-9.2,1.945-19.169,1.125-27.584-3.286-3.271-1.713-6.83-3.7-8.74-7.011-1.867-3.241-2.608-7.126-4.756-10.2-2.542-3.638-6.661-3.654-10-6.131a13.367,13.367,0,0,1-5.156-6.619c-2.374-7.157-1.236-15.369.5-22.551a79.919,79.919,0,0,1,19.98-35.816C769.8,569.351,786.731,552.583,790.367,546.048Z" transform="translate(-630.027 -451.024)"/>
    <g id="Group_320" data-name="Group 320" class="cls-11" transform="translate(141.722 123.769)">
      <path id="Path_1532" data-name="Path 1532" class="cls-12" d="M1127.671,1108.042h-7.908v-7.6h7.908a2.152,2.152,0,0,0,0-4.3h-7.908V1085.6a5.088,5.088,0,0,0-.9-3.358,2.9,2.9,0,0,0-2.357-.96,2.776,2.776,0,0,0-2.27.953,5.153,5.153,0,0,0-.894,3.365v10.542h-14.875l-6.325-9.571c-.542-.855-1.05-1.655-1.544-2.423a10.739,10.739,0,0,0-1.29-1.675,4.1,4.1,0,0,0-1.259-.881,4.163,4.163,0,0,0-1.724-.313,4.354,4.354,0,0,0-2.431.732,4.026,4.026,0,0,0-1.589,1.843,9.441,9.441,0,0,0-.433,3.226v9.061h-7.83a2.152,2.152,0,0,0,0,4.3h7.833v7.6h-7.83a2.15,2.15,0,1,0,0,4.3h7.83v12.042a4.97,4.97,0,0,0,.936,3.322,2.907,2.907,0,0,0,2.358.992,2.95,2.95,0,0,0,2.344-1,4.947,4.947,0,0,0,.95-3.322v-12.042h13.461l7.285,11.171c.505.738,1.03,1.483,1.551,2.214a10.48,10.48,0,0,0,1.525,1.717,4.748,4.748,0,0,0,1.555.952,5.718,5.718,0,0,0,1.939.3c1.97,0,3.987-.6,3.987-5.076v-11.282h7.907a2.152,2.152,0,0,0,0-4.3Zm-14.333-7.6v7.6h-7.009l-5.023-7.6Zm-24.879-8.733,2.888,4.431h-2.888Zm0,16.334v-7.6h5.7l4.958,7.6Zm24.879,10.608-4.165-6.305h4.165Z" transform="translate(-1071.89 -1081.275)"/>
    </g>
    <path id="Path_1533" data-name="Path 1533" class="cls-13" d="M1115.889,1107.9h-7.908v-7.6h7.908a2.152,2.152,0,1,0,0-4.3h-7.908V1085.46a5.084,5.084,0,0,0-.9-3.358,2.9,2.9,0,0,0-2.357-.959,2.778,2.778,0,0,0-2.27.953,5.15,5.15,0,0,0-.893,3.365V1096h-14.875l-6.33-9.572c-.542-.854-1.051-1.654-1.545-2.422a10.74,10.74,0,0,0-1.288-1.675,3.842,3.842,0,0,0-2.984-1.194,4.354,4.354,0,0,0-2.432.732,4.022,4.022,0,0,0-1.589,1.843,9.406,9.406,0,0,0-.433,3.225V1096h-7.829a2.152,2.152,0,0,0,0,4.3h7.829v7.6h-7.829a2.152,2.152,0,0,0,0,4.3h7.829v12.04a4.973,4.973,0,0,0,.936,3.322,2.911,2.911,0,0,0,2.36.992,2.941,2.941,0,0,0,2.342-.995,4.956,4.956,0,0,0,.952-3.322V1112.2h13.46l7.284,11.169c.507.74,1.03,1.485,1.551,2.215a10.5,10.5,0,0,0,1.526,1.717,4.731,4.731,0,0,0,1.554.952,5.721,5.721,0,0,0,1.94.3c1.97,0,3.987-.6,3.987-5.075V1112.2h7.908a2.152,2.152,0,0,0,0-4.3Zm-14.332-7.6v7.6h-7.01l-5.021-7.6Zm-24.879-8.733,2.888,4.431h-2.888Zm0,16.332v-7.6h5.7l4.958,7.6Zm24.879,10.616-4.164-6.312h4.167v6.313Z" transform="translate(-920.129 -957.387)"/>
    <path id="Path_1534" data-name="Path 1534" class="cls-14" d="M1404.543,1187c1.053,3.8,1.911,8.368.094,12.14-1.589,3.3-4.91,5.323-6.8,8.454-3.235,5.361.191,14.524,7.04,13.517,3.092-.456,6.014-2.3,9.018-3.449,3.056-1.167,6.507-1.089,9.569-2.135,12.013-4.107,7.221-22.24,3.488-30.546-2.831-6.305-7.169-14.6-14.073-17.108C1399.614,1163.05,1402.556,1179.844,1404.543,1187Z" transform="translate(-1207.991 -1030.865)"/>
    <path id="Path_1535" data-name="Path 1535" class="cls-10" d="M1227.34,627.508s5.188-10.141,6.463-12.433c0,0,2.351-3.095-.9-3.135-3.337,1.961-6.052,3.518-8.492,6.74a37.24,37.24,0,0,0-5.144,8.979c-1.074,2.779-1.131,7.51-4.044,9.267-6.614,3.989-5.762-14.972-10-6.066-1.3,2.725.094,7.245-1.28,9.706-2.311,4.123-3.9-.237-4.448-3.339-.637-3.61-.16-21.065-7.439-15.424-3.439,2.667-1.476,6.548-1.119,10.014.455,4.438-1.309,8.753-.735,13.167,1.047,8.044,6.737,9.316,13.72,8.967,5.777-.289,14.995-1.036,17.041-7.264,2.09-6.372,2.516-12.055,6-18.433" transform="translate(-1031.277 -555.952)"/>
    <path id="Path_1536" data-name="Path 1536" class="cls-13" d="M1084.77,808.137c0,1.953-.995,3.537-2.22,3.537h-56.9c-1.226,0-2.22-1.589-2.22-3.537h0c0-1.954.994-3.537,2.22-3.537h56.9C1083.775,804.6,1084.77,806.189,1084.77,808.137Z" transform="translate(-888.707 -720.788)"/>
    <path id="Path_1537" data-name="Path 1537" class="cls-15" d="M1084.77,857.117c0,1.955-.995,3.538-2.22,3.538h-56.9c-1.226,0-2.22-1.589-2.22-3.538h0c0-1.951.994-3.537,2.22-3.537h56.9C1083.775,853.58,1084.77,855.169,1084.77,857.117Z" transform="translate(-888.707 -762.695)"/>
    <path id="Path_1538" data-name="Path 1538" class="cls-16" d="M687.27,1374.326a34.885,34.885,0,1,1-34.886-34.886A34.886,34.886,0,0,1,687.27,1374.326Z" transform="translate(-541.4 -1178.388)"/>
    <path id="Path_1539" data-name="Path 1539" class="cls-17" d="M662.765,1374.326a34.883,34.883,0,1,1-34.881-34.886A34.886,34.886,0,0,1,662.765,1374.326Z" transform="translate(-520.439 -1178.388)"/>
    <path id="Path_1540" data-name="Path 1540" class="cls-18" d="M703.367,1423.2a26.639,26.639,0,1,1-26.642-26.636A26.637,26.637,0,0,1,703.367,1423.2Z" transform="translate(-569.284 -1227.259)"/>
    <path id="Path_1541" data-name="Path 1541" class="cls-19" d="M721.257,1432.129A25.129,25.129,0,1,1,696.129,1407,25.129,25.129,0,0,1,721.257,1432.129Z" transform="translate(-587.174 -1236.191)"/>
    <path id="Path_1542" data-name="Path 1542" class="cls-20" d="M602.141,1549.6l-7.251,4.477a34.688,34.688,0,0,1-1.89-11.353c0-.3,0-.586.014-.876l9.028-5.585a26.808,26.808,0,0,0,.107,13.336Z" transform="translate(-520.438 -1346.783)"/>
    <path id="Path_1543" data-name="Path 1543" class="cls-20" d="M893.712,1369.456l-7.245,4.477a26.541,26.541,0,0,0-11.877-6.066l9.033-5.577A34.805,34.805,0,0,1,893.712,1369.456Z" transform="translate(-761.362 -1197.938)"/>
    <path id="Path_1544" data-name="Path 1544" class="cls-18" d="M627.446,1661.825l-7.029,4.333a34.2,34.2,0,0,1-2.917-4.894l7.055-4.363A27.1,27.1,0,0,0,627.446,1661.825Z" transform="translate(-541.4 -1450.001)"/>
    <path id="Path_1545" data-name="Path 1545" class="cls-18" d="M987.731,1439.193l-7.029,4.356a26.246,26.246,0,0,0-3.112-4.786l7.055-4.363A34.7,34.7,0,0,1,987.731,1439.193Z" transform="translate(-849.487 -1259.634)"/>
    <path id="Path_1546" data-name="Path 1546" class="cls-21" d="M690.708,1733.636l-9.033,5.585a34.662,34.662,0,0,1-8.495-5.632l7.4-4.588A26.6,26.6,0,0,0,690.708,1733.636Z" transform="translate(-589.039 -1511.688)"/>
    <path id="Path_1547" data-name="Path 1547" class="cls-21" d="M1022.171,1526.243c0,.3,0,.595-.013.885l-9.088,5.618a25.252,25.252,0,0,0,.419-11.149l7.44-4.6a34.788,34.788,0,0,1,1.242,9.243Z" transform="translate(-879.843 -1330.305)"/>
    <path id="Path_1548" data-name="Path 1548" class="cls-22" d="M751.1,1508.469h-4.78v-4.594h4.78a1.3,1.3,0,1,0,0-2.6h-4.78V1494.9a3.039,3.039,0,0,0-.546-2.022,1.734,1.734,0,0,0-1.425-.578,1.676,1.676,0,0,0-1.372.578,3.112,3.112,0,0,0-.54,2.033v6.376h-8.992l-3.823-5.785c-.328-.517-.635-1-.934-1.464a6.41,6.41,0,0,0-.778-1.011,2.467,2.467,0,0,0-.762-.533,2.5,2.5,0,0,0-1.041-.189,2.638,2.638,0,0,0-1.47.442,2.441,2.441,0,0,0-.962,1.114,5.7,5.7,0,0,0-.257,1.95v5.478H718.68a1.3,1.3,0,0,0,0,2.6h4.733v4.594H718.68a1.3,1.3,0,0,0,0,2.6h4.733v7.277a3.011,3.011,0,0,0,.565,2.009,1.724,1.724,0,0,0,1.427.6,1.785,1.785,0,0,0,1.415-.6,2.936,2.936,0,0,0,.578-2.007v-7.277h8.136l4.4,6.739c.306.446.622.9.937,1.339a6.348,6.348,0,0,0,.923,1.037,2.879,2.879,0,0,0,.939.578,3.487,3.487,0,0,0,1.173.183c1.191,0,2.41-.364,2.41-3.067v-6.819h4.78a1.3,1.3,0,0,0,0-2.6Zm-8.665-4.594v4.594H738.2l-3.033-4.594Zm-15.038-5.28,1.747,2.679h-1.747Zm0,9.874v-4.594h3.444l3,4.594Zm15.038,6.412-2.517-3.811h2.517Z" transform="translate(-626.856 -1309.172)"/>
    <path id="Path_1549" data-name="Path 1549" class="cls-17" d="M743.8,1508.346h-4.78v-4.594h4.78a1.3,1.3,0,1,0,0-2.6h-4.78v-6.375a3.077,3.077,0,0,0-.546-2.031,1.715,1.715,0,0,0-1.425-.578,1.671,1.671,0,0,0-1.372.578,3.192,3.192,0,0,0-.54,2.033v6.375h-8.991l-3.823-5.785c-.328-.516-.635-1-.934-1.464a6.58,6.58,0,0,0-.778-1.011,2.492,2.492,0,0,0-.763-.533,2.525,2.525,0,0,0-1.041-.189,2.634,2.634,0,0,0-1.47.443,2.432,2.432,0,0,0-.962,1.114,5.694,5.694,0,0,0-.258,1.949v5.478H711.38a1.3,1.3,0,0,0,0,2.6h4.733v4.6H711.38a1.3,1.3,0,1,0,0,2.6h4.733v7.279a3.013,3.013,0,0,0,.566,2.009,1.758,1.758,0,0,0,1.425.6,1.788,1.788,0,0,0,1.417-.6,2.946,2.946,0,0,0,.578-2.007v-7.279h8.137l4.4,6.752c.306.446.622.9.937,1.339a6.341,6.341,0,0,0,.921,1.038,2.853,2.853,0,0,0,.94.578,3.444,3.444,0,0,0,1.173.185c1.19,0,2.41-.365,2.41-3.069v-6.819h4.78a1.3,1.3,0,1,0,0-2.6Zm-8.665-4.594v4.594H730.9l-3.033-4.594Zm-15.038-5.278,1.747,2.679h-1.747Zm0,9.872v-4.594h3.443l3,4.594Zm15.038,6.412-2.519-3.811h2.519Z" transform="translate(-620.61 -1309.061)"/>
    <path id="Path_1550" data-name="Path 1550" class="cls-16" d="M309.988,1394.325A34.884,34.884,0,1,1,275.1,1359.44,34.883,34.883,0,0,1,309.988,1394.325Z" transform="translate(-218.606 -1195.499)"/>
    <path id="Path_1551" data-name="Path 1551" class="cls-17" d="M285.46,1394.325a34.885,34.885,0,1,1-34.886-34.885A34.884,34.884,0,0,1,285.46,1394.325Z" transform="translate(-197.619 -1195.499)"/>
    <path id="Path_1552" data-name="Path 1552" class="cls-18" d="M326.081,1443.2a26.636,26.636,0,1,1-26.636-26.636A26.637,26.637,0,0,1,326.081,1443.2Z" transform="translate(-246.49 -1244.37)"/>
    <path id="Path_1553" data-name="Path 1553" class="cls-19" d="M343.937,1452.129A25.129,25.129,0,1,1,318.809,1427a25.129,25.129,0,0,1,25.129,25.129Z" transform="translate(-264.346 -1253.302)"/>
    <path id="Path_1554" data-name="Path 1554" class="cls-20" d="M224.807,1569.534l-7.251,4.477a34.675,34.675,0,0,1-1.9-11.348c0-.3,0-.589.013-.878l9.028-5.585a26.807,26.807,0,0,0,.107,13.336Z" transform="translate(-197.593 -1363.844)"/>
    <path id="Path_1555" data-name="Path 1555" class="cls-20" d="M516.381,1389.376l-7.244,4.477a26.558,26.558,0,0,0-11.877-6.066l9.035-5.577A34.787,34.787,0,0,1,516.381,1389.376Z" transform="translate(-438.525 -1214.981)"/>
    <path id="Path_1556" data-name="Path 1556" class="cls-18" d="M250.166,1681.81l-7.029,4.347a34.324,34.324,0,0,1-2.917-4.9l7.055-4.361A27.236,27.236,0,0,0,250.166,1681.81Z" transform="translate(-218.606 -1467.112)"/>
    <path id="Path_1557" data-name="Path 1557" class="cls-18" d="M610.451,1459.115l-7.029,4.354a26.363,26.363,0,0,0-3.112-4.787l7.055-4.361A34.466,34.466,0,0,1,610.451,1459.115Z" transform="translate(-526.693 -1276.677)"/>
    <path id="Path_1558" data-name="Path 1558" class="cls-21" d="M313.394,1753.587l-9.041,5.583a34.621,34.621,0,0,1-8.493-5.632l7.407-4.578A26.584,26.584,0,0,0,313.394,1753.587Z" transform="translate(-266.211 -1528.766)"/>
    <path id="Path_1559" data-name="Path 1559" class="cls-21" d="M644.891,1546.208c0,.289,0,.594-.013.884l-9.088,5.624a25.248,25.248,0,0,0,.419-11.148l7.44-4.6a34.783,34.783,0,0,1,1.242,9.239Z" transform="translate(-557.049 -1347.391)"/>
    <path id="Path_1560" data-name="Path 1560" class="cls-22" d="M373.367,1514.916h-4.783v-4.594h4.78a1.3,1.3,0,1,0,0-2.6h-4.78v-6.375a3.079,3.079,0,0,0-.546-2.031,1.751,1.751,0,0,0-1.425-.578,1.675,1.675,0,0,0-1.372.578,3.109,3.109,0,0,0-.54,2.033v6.375h-8.989l-3.823-5.785c-.328-.516-.635-1-.934-1.464a6.576,6.576,0,0,0-.778-1.011,2.492,2.492,0,0,0-.763-.533,2.528,2.528,0,0,0-1.041-.189,2.64,2.64,0,0,0-1.47.443,2.432,2.432,0,0,0-.962,1.113,5.7,5.7,0,0,0-.257,1.95v5.478H340.95a1.3,1.3,0,0,0,0,2.6h4.733v4.594h-4.731a1.3,1.3,0,0,0,0,2.6h4.733v7.279a3.014,3.014,0,0,0,.565,2.009,1.72,1.72,0,0,0,1.427.6,1.786,1.786,0,0,0,1.415-.6,2.939,2.939,0,0,0,.578-2.007v-7.279H357.8l4.4,6.751c.306.446.622.9.937,1.339a6.3,6.3,0,0,0,.923,1.038,2.849,2.849,0,0,0,.939.578,3.456,3.456,0,0,0,1.173.185c1.191,0,2.41-.365,2.41-3.069v-6.819h4.78a1.3,1.3,0,0,0,0-2.6Zm-8.665-4.594v4.594h-4.234l-3.033-4.594Zm-15.037-5.279,1.747,2.679h-1.747Zm0,9.873v-4.594h3.444l3,4.594Zm15.038,6.412-2.517-3.811H364.7Z" transform="translate(-303.677 -1314.682)"/>
    <path id="Path_1561" data-name="Path 1561" class="cls-17" d="M366.077,1514.856H361.3v-4.594h4.78a1.3,1.3,0,0,0,0-2.6H361.3v-6.375a3.039,3.039,0,0,0-.547-2.022,1.733,1.733,0,0,0-1.424-.578,1.675,1.675,0,0,0-1.372.578,3.117,3.117,0,0,0-.54,2.035v6.375h-8.991l-3.823-5.785c-.328-.517-.635-1-.934-1.464a6.572,6.572,0,0,0-.778-1.011,2.468,2.468,0,0,0-.758-.543,2.527,2.527,0,0,0-1.041-.189,2.636,2.636,0,0,0-1.47.442,2.436,2.436,0,0,0-.962,1.115,5.7,5.7,0,0,0-.258,1.95v5.476H333.66a1.3,1.3,0,0,0,0,2.6h4.733v4.6H333.66a1.3,1.3,0,1,0,0,2.6h4.733v7.277a3.008,3.008,0,0,0,.566,2.009,1.724,1.724,0,0,0,1.425.6,1.789,1.789,0,0,0,1.417-.6,2.944,2.944,0,0,0,.578-2.007v-7.277h8.137l4.4,6.752c.306.446.621.9.937,1.339a6.477,6.477,0,0,0,.921,1.038,2.9,2.9,0,0,0,.94.578,3.484,3.484,0,0,0,1.173.183c1.19,0,2.41-.364,2.41-3.067v-6.819h4.78a1.3,1.3,0,0,0,0-2.6Zm-8.665-4.594v4.594h-4.236l-3.033-4.594Zm-15.038-5.279,1.747,2.678h-1.747Zm0,9.873v-4.594h3.443l3,4.594Zm15.038,6.412-2.519-3.811h2.519Z" transform="translate(-297.44 -1314.632)"/>
    <path id="Path_1562" data-name="Path 1562" class="cls-23" d="M1200.41,289.544a2.114,2.114,0,0,1-2.114,2.113h-43.051a2.113,2.113,0,0,1-2.114-2.113h0a2.116,2.116,0,0,1,2.114-2.114H1198.3A2.116,2.116,0,0,1,1200.41,289.544Z" transform="translate(-999.676 -278.307)"/>
    <path id="Path_1563" data-name="Path 1563" class="cls-24" d="M183.71,1340.214a2.114,2.114,0,0,1,2.114-2.114h20.468a2.113,2.113,0,0,1,2.113,2.114h0a2.114,2.114,0,0,1-2.113,2.114H185.824A2.116,2.116,0,0,1,183.71,1340.214Z" transform="translate(-170.257 -1177.241)"/>
    <path id="Path_1564" data-name="Path 1564" class="cls-24" d="M90.56,1340.214a2.114,2.114,0,0,1,2.116-2.114h4.611a2.113,2.113,0,0,1,2.113,2.114h0a2.113,2.113,0,0,1-2.113,2.114H92.676A2.116,2.116,0,0,1,90.56,1340.214Z" transform="translate(-90.56 -1177.241)"/>
    <path id="Path_1565" data-name="Path 1565" class="cls-24" d="M1791.305,1336.233a2.112,2.112,0,0,1-2.114,2.114h-20.467a2.112,2.112,0,0,1-2.114-2.114h0a2.113,2.113,0,0,1,2.114-2.113H1789.2a2.113,2.113,0,0,1,2.114,2.113Z" transform="translate(-1524.558 -1173.836)"/>
    <path id="Path_1566" data-name="Path 1566" class="cls-24" d="M1978.39,1336.233a2.114,2.114,0,0,1-2.114,2.114h-4.613a2.114,2.114,0,0,1-2.113-2.114h0a2.113,2.113,0,0,1,2.113-2.113h4.613A2.113,2.113,0,0,1,1978.39,1336.233Z" transform="translate(-1698.19 -1173.836)"/>
    <path id="Path_1567" data-name="Path 1567" class="cls-24" d="M1625.438,856.849a2.113,2.113,0,0,1-2.111,2.109h-18.594a2.113,2.113,0,0,1-2.113-2.114h0a2.111,2.111,0,0,1,2.113-2.113h18.594a2.113,2.113,0,0,1,2.114,2.113Z" transform="translate(-1384.251 -763.678)"/>
    <path id="Path_1568" data-name="Path 1568" class="cls-24" d="M1801.4,856.849a2.113,2.113,0,0,1-2.113,2.109h-4.613a2.114,2.114,0,0,1-2.114-2.114h0a2.113,2.113,0,0,1,2.114-2.113h4.613a2.111,2.111,0,0,1,2.113,2.113Z" transform="translate(-1546.76 -763.678)"/>
    <path id="Path_1569" data-name="Path 1569" class="cls-24" d="M1174.36,1866.614a2.113,2.113,0,0,1,2.114-2.114h18.591a2.113,2.113,0,0,1,2.113,2.114h0a2.111,2.111,0,0,1-2.113,2.113h-18.591A2.113,2.113,0,0,1,1174.36,1866.614Z" transform="translate(-1017.84 -1627.62)"/>
    <path id="Path_1570" data-name="Path 1570" class="cls-24" d="M1081.22,1866.614a2.113,2.113,0,0,1,2.114-2.114h4.611a2.116,2.116,0,0,1,2.114,2.114h0a2.114,2.114,0,0,1-2.114,2.113h-4.611A2.113,2.113,0,0,1,1081.22,1866.614Z" transform="translate(-938.151 -1627.62)"/>
    <path id="Path_1571" data-name="Path 1571" class="cls-24" d="M1365.88,1866.614a2.113,2.113,0,0,1,2.114-2.114h4.613a2.114,2.114,0,0,1,2.113,2.114h0a2.114,2.114,0,0,1-2.113,2.113h-4.613A2.113,2.113,0,0,1,1365.88,1866.614Z" transform="translate(-1181.701 -1627.62)"/>
    <path id="Path_1572" data-name="Path 1572" class="cls-24" d="M332.94,489.847a2.111,2.111,0,0,1-2.113,2.11h-4.614a2.111,2.111,0,0,1-2.113-2.113h0a2.113,2.113,0,0,1,2.113-2.114h4.614a2.113,2.113,0,0,1,2.113,2.114Z" transform="translate(-290.373 -449.68)"/>
    <path id="Path_1573" data-name="Path 1573" class="cls-24" d="M444.127,489.847a2.111,2.111,0,0,1-2.113,2.11h-13.33a2.113,2.113,0,0,1-2.114-2.113h0a2.113,2.113,0,0,1,2.114-2.114h13.33a2.113,2.113,0,0,1,2.113,2.114Z" transform="translate(-378.044 -449.68)"/>
    <path id="Path_1574" data-name="Path 1574" class="cls-24" d="M1825.458,531.078a2.439,2.439,0,1,1-2.438-2.438,2.439,2.439,0,0,1,2.438,2.438Z" transform="translate(-1570.734 -484.682)"/>
    <path id="Path_1575" data-name="Path 1575" class="cls-24" d="M149.328,717.219a2.439,2.439,0,1,1-2.438-2.439,2.439,2.439,0,0,1,2.438,2.439Z" transform="translate(-136.667 -643.94)"/>
    <path id="Path_1576" data-name="Path 1576" class="cls-24" d="M716.206,624.938a2.438,2.438,0,1,1-2.438-2.438A2.438,2.438,0,0,1,716.206,624.938Z" transform="translate(-621.68 -564.987)"/>
    <path id="Path_1577" data-name="Path 1577" class="cls-24" d="M888.255,226.558a2.438,2.438,0,1,1-2.438-2.438A2.438,2.438,0,0,1,888.255,226.558Z" transform="translate(-768.882 -224.14)"/>
    <path id="Path_1578" data-name="Path 1578" class="cls-24" d="M1988.1,1549.446a2.439,2.439,0,1,1-2.438-2.436A2.439,2.439,0,0,1,1988.1,1549.446Z" transform="translate(-1709.886 -1355.981)"/>
  </g>
</svg>
