<svg xmlns="http://www.w3.org/2000/svg" width="63.044" height="63.044" viewBox="0 0 63.044 63.044">
  <g id="password-svgrepo-com" transform="translate(-11 -11)">
    <g id="Group_259" data-name="Group 259" transform="translate(11 11)">
      <path id="Path_337" data-name="Path 337" d="M63.905,11H21.138A10.158,10.158,0,0,0,11,21.138V32.95a10.186,10.186,0,0,0,4.683,8.543,13.9,13.9,0,0,0-.54,3.808c0,.219-3.783-.965-4.143,2.625V71.419a2.619,2.619,0,0,0,2.625,2.625H45.61a2.619,2.619,0,0,0,2.625-2.625V47.926C47.9,44.4,44.092,45.481,44.092,45.3a14.006,14.006,0,0,0-.18-2.213H63.905A10.158,10.158,0,0,0,74.044,32.95V21.138A10.158,10.158,0,0,0,63.905,11ZM42.985,68.795H16.249V50.55H42.985ZM20.405,45.3a9.228,9.228,0,0,1,18.45,0ZM68.795,32.95a4.9,4.9,0,0,1-4.889,4.889H41.879a14.5,14.5,0,0,0-23.789-1.068,4.935,4.935,0,0,1-1.84-3.821V21.138a4.9,4.9,0,0,1,4.889-4.889H63.905a4.9,4.9,0,0,1,4.889,4.889Z" transform="translate(-11 -11)" fill="#7f9092"/>
      <path id="Path_338" data-name="Path 338" d="M93.025,115.3h-.9a2.625,2.625,0,0,0,0,5.249h.9a2.625,2.625,0,1,0,0-5.249Z" transform="translate(-79.4 -101.881)" fill="#7f9092"/>
      <path id="Path_339" data-name="Path 339" d="M188.125,115.3h-.9a2.625,2.625,0,0,0,0,5.249h.9a2.625,2.625,0,1,0,0-5.249Z" transform="translate(-162.264 -101.881)" fill="#7f9092"/>
      <path id="Path_340" data-name="Path 340" d="M283.125,115.3h-.9a2.625,2.625,0,0,0,0,5.249h.9a2.625,2.625,0,0,0,0-5.249Z" transform="translate(-245.042 -101.881)" fill="#7f9092"/>
      <path id="Path_341" data-name="Path 341" d="M378.225,115.3h-.9a2.625,2.625,0,0,0,0,5.249h.9a2.625,2.625,0,1,0,0-5.249Z" transform="translate(-327.906 -101.881)" fill="#7f9092"/>
    </g>
  </g>
</svg>
