<svg xmlns="http://www.w3.org/2000/svg" xmlns:xlink="http://www.w3.org/1999/xlink" width="94.936" height="119.776" viewBox="0 0 94.936 119.776">
  <defs>
    <filter id="screen-smartphone_-_simple-line-icons" x="0" y="0" width="94.936" height="119.776" filterUnits="userSpaceOnUse">
      <feOffset dx="2" dy="2" input="SourceAlpha"/>
      <feGaussianBlur stdDeviation="10.5" result="blur"/>
      <feFlood flood-opacity="0.149"/>
      <feComposite operator="in" in2="blur"/>
      <feComposite in="SourceGraphic"/>
    </filter>
  </defs>
  <g id="icon" transform="translate(29.5 29.5)">
    <g transform="matrix(1, 0, 0, 1, -29.5, -29.5)" filter="url(#screen-smartphone_-_simple-line-icons)">
      <path id="screen-smartphone_-_simple-line-icons-2" data-name="screen-smartphone - simple-line-icons" d="M26.614,56.776H5.323a5.156,5.156,0,0,1-3.77-1.552A5.156,5.156,0,0,1,0,51.453V5.323a5.155,5.155,0,0,1,1.553-3.77A5.155,5.155,0,0,1,5.323,0H26.614a5.154,5.154,0,0,1,3.77,1.553,5.155,5.155,0,0,1,1.553,3.77v46.13a5.3,5.3,0,0,1-5.323,5.323ZM5.323,3.549A1.8,1.8,0,0,0,3.549,5.323v46.13a1.8,1.8,0,0,0,1.774,1.775H26.614a1.8,1.8,0,0,0,1.775-1.775V5.323a1.8,1.8,0,0,0-1.775-1.774Zm10.646,47.9a3.548,3.548,0,1,1,2.523-6.043,3.548,3.548,0,0,1,0,4.99A3.4,3.4,0,0,1,15.968,51.453ZM19.517,8.871h-7.1A1.8,1.8,0,0,1,10.646,7.1,1.8,1.8,0,0,1,12.42,5.323h7.1A1.8,1.8,0,0,1,21.291,7.1a1.8,1.8,0,0,1-1.774,1.774Z" transform="translate(29.5 29.5)" fill="#bdbdbd"/>
    </g>
  </g>
</svg>
