<svg xmlns="http://www.w3.org/2000/svg" width="18.872" height="18.872" viewBox="0 0 18.872 18.872">
  <g id="Group_271" data-name="Group 271" transform="translate(-627.064 -454.479)">
    <path id="Path_355" data-name="Path 355" d="M.8,10.862l1.237.008A7.524,7.524,0,0,0,3.14,13.585l-.878.871a.8.8,0,0,0-.008,1.133l.948.959a.8.8,0,0,0,1.133.008l.878-.871a7.481,7.481,0,0,0,2.7,1.137L7.91,18.059a.8.8,0,0,0,.8.805l1.349.008a.8.8,0,0,0,.805-.8l.008-1.237a7.524,7.524,0,0,0,2.716-1.106l.871.878a.8.8,0,0,0,1.133.008l.959-.948a.8.8,0,0,0,.008-1.133l-.871-.878a7.481,7.481,0,0,0,1.137-2.7l1.237.008a.8.8,0,0,0,.805-.8l.008-1.349a.8.8,0,0,0-.8-.805L16.837,8a7.524,7.524,0,0,0-1.106-2.716l.878-.871a.8.8,0,0,0,.008-1.133l-.948-.959a.8.8,0,0,0-1.133-.008l-.878.871a7.481,7.481,0,0,0-2.7-1.137L10.962.813a.8.8,0,0,0-.8-.805L8.816,0A.8.8,0,0,0,8.01.8L8,2.035A7.469,7.469,0,0,0,5.282,3.14l-.871-.878a.8.8,0,0,0-1.133-.008L2.323,3.2a.8.8,0,0,0-.008,1.133l.871.878a7.481,7.481,0,0,0-1.137,2.7L.813,7.91a.8.8,0,0,0-.805.8L0,10.056A.8.8,0,0,0,.8,10.862Zm6.111-3.98a3.588,3.588,0,1,1-.027,5.074A3.586,3.586,0,0,1,6.908,6.881Z" transform="translate(627.064 454.479)" fill="#0b535b"/>
  </g>
</svg>
