<svg xmlns="http://www.w3.org/2000/svg" width="21" height="18.75" viewBox="0 0 21 18.75">
  <g id="Group_249" data-name="Group 249" transform="translate(-207.5 -200.25)">
    <path id="Path_164" data-name="Path 164" d="M218,590.5h1.5V592H218Z" transform="translate(0 -382)" fill="#0b535b"/>
    <path id="Path_165" data-name="Path 165" d="M221,590.5h1.5V592H221Z" transform="translate(0 -382)" fill="#0b535b"/>
    <path id="Path_166" data-name="Path 166" d="M224,590.5h1.5V592H224Z" transform="translate(0 -382)" fill="#0b535b"/>
    <path id="Path_167" data-name="Path 167" d="M218,593.5h1.5V595H218Z" transform="translate(0 -382)" fill="#0b535b"/>
    <path id="Path_168" data-name="Path 168" d="M221,593.5h1.5V595H221Z" transform="translate(0 -382)" fill="#0b535b"/>
    <path id="Path_169" data-name="Path 169" d="M224,593.5h1.5V595H224Z" transform="translate(0 -382)" fill="#0b535b"/>
    <path id="Path_170" data-name="Path 170" d="M218,596.5h1.5V598H218Z" transform="translate(0 -382)" fill="#0b535b"/>
    <path id="Path_171" data-name="Path 171" d="M221,596.5h1.5V598H221Z" transform="translate(0 -382)" fill="#0b535b"/>
    <path id="Path_172" data-name="Path 172" d="M224,596.5h1.5V598H224Z" transform="translate(0 -382)" fill="#0b535b"/>
    <path id="Path_173" data-name="Path 173" d="M218,587.5h7.5V589H218Z" transform="translate(0 -382)" fill="#0b535b"/>
    <path id="Path_174" data-name="Path 174" d="M227,584.5H216.5v-.75a1.5,1.5,0,0,0-1.5-1.5h-3a1.5,1.5,0,0,0-1.5,1.5v.75H209a1.5,1.5,0,0,0-1.5,1.5v13.5A1.5,1.5,0,0,0,209,601h18a1.5,1.5,0,0,0,1.5-1.5V586a1.5,1.5,0,0,0-1.5-1.5Zm-15-.75h3V596.5h-3Zm15,15.75H209V586h1.5v10.5A1.5,1.5,0,0,0,212,598h3a1.5,1.5,0,0,0,1.5-1.5V586H227Z" transform="translate(0 -382)" fill="#0b535b"/>
  </g>
</svg>
