<svg xmlns="http://www.w3.org/2000/svg" width="20.625" height="20.624" viewBox="0 0 20.625 20.624">
  <path id="Path_202" data-name="Path 202" d="M58.281,583.8H51l3.115-3.115H52.174L49.059,583.8h-.1l-3.115-3.115H43.9l3.115,3.115h-7.3a1.032,1.032,0,0,0-1.031,1.031v12.719a1.032,1.032,0,0,0,1.031,1.031h4.812v2.728h9.625v-2.728h4.125a1.032,1.032,0,0,0,1.031-1.031V584.834a1.032,1.032,0,0,0-1.031-1.031Zm-5.5,16.135H45.906v-1.354h6.875Zm5.156-2.729H40.063V585.178H57.938Z" transform="translate(-38.688 -580.688)" fill="#0b535b"/>
</svg>
