<svg xmlns="http://www.w3.org/2000/svg" width="21.429" height="21.503" viewBox="0 0 21.429 21.503">
  <g id="wallet-svgrepo-com" transform="translate(-0.878 0)">
    <path id="Path_358" data-name="Path 358" d="M55.025,6.636,53.395.672A.913.913,0,0,0,52.273.032L37.893,3.961a.913.913,0,0,0-.639,1.122l.423,1.554H55.025Z" transform="translate(-34.805 0)" fill="#4cdbc4"/>
    <path id="Path_359" data-name="Path 359" d="M82.978,47.583H96.465a1.66,1.66,0,0,1,.914-.627l-.825-3.014a1.687,1.687,0,0,1-2.074-1.185L83.753,45.686A1.7,1.7,0,0,1,82.978,47.583Z" transform="translate(-78.625 -40.947)" fill="#f2f2f2"/>
    <g id="Group_317" data-name="Group 317" transform="translate(9.29 3.726)">
      <circle id="Ellipse_25" data-name="Ellipse 25" cx="0.622" cy="0.622" r="0.622" transform="translate(5.041 1.073)" fill="#4cdbc4"/>
      <path id="Path_360" data-name="Path 360" d="M203.7,90.915a3.678,3.678,0,0,0-.123-.754c-.4-1.452-1.583-2.4-2.646-2.1-.991.271-1.528,1.515-1.274,2.857Z" transform="translate(-199.599 -88.004)" fill="#4cdbc4"/>
    </g>
    <path id="Path_361" data-name="Path 361" d="M223.747,114.212a1.06,1.06,0,0,0,.618.169l.013.047h.288l-.013-.038a.561.561,0,0,1,.2.038h.627a.747.747,0,0,0-.284-.411,1.219,1.219,0,0,0-.69-.148l-.2-.724a.4.4,0,0,1,.3.237l.453-.19a.8.8,0,0,0-.343-.381.823.823,0,0,0-.525-.072l-.051-.182-.267.072.051.182a.793.793,0,0,0-.444.377.737.737,0,0,0-.051.563A.812.812,0,0,0,223.747,114.212Zm.161-.825a.331.331,0,0,1,.14-.174l.174.639a.454.454,0,0,1-.216-.085.327.327,0,0,1-.11-.165A.317.317,0,0,1,223.907,113.387Z" transform="translate(-213.107 -107.792)" fill="#f2f2f2"/>
    <g id="Group_318" data-name="Group 318" transform="translate(0.878 6.526)">
      <path id="Path_362" data-name="Path 362" d="M21.985,156.6v-1.545a.9.9,0,0,0-.9-.9H1.78a.9.9,0,0,0-.9.9V156.6Z" transform="translate(-0.878 -154.157)" fill="#0b535b"/>
      <path id="Path_363" data-name="Path 363" d="M.878,450.157V451.7a.9.9,0,0,0,.9.9h19.3a.9.9,0,0,0,.9-.9v-1.545Z" transform="translate(-0.878 -437.627)" fill="#0b535b"/>
    </g>
    <g id="Group_319" data-name="Group 319" transform="translate(0.878 8.973)">
      <path id="Path_364" data-name="Path 364" d="M64.678,507.957Z" transform="translate(-61.977 -495.427)" fill="#0b535b"/>
      <path id="Path_365" data-name="Path 365" d="M21.968,211.957H.891q-.013.127-.013.254v9.576q0,.127.013.254H21.968q.013-.127.013-.254v-9.576A1.7,1.7,0,0,0,21.968,211.957Z" transform="translate(-0.878 -211.957)" fill="#0b535b"/>
    </g>
    <path id="Path_366" data-name="Path 366" d="M388.136,288.357v3.615h-3.509a1.8,1.8,0,0,1-1.719-1.49,1.545,1.545,0,0,1-.03-.313,1.812,1.812,0,0,1,.529-1.278,1.787,1.787,0,0,1,1.278-.529h3.45Z" transform="translate(-365.829 -276.15)" fill="#44cfb0"/>
    <circle id="Ellipse_26" data-name="Ellipse 26" cx="1.135" cy="1.135" r="1.135" transform="translate(17.866 12.88)" fill="#fff"/>
  </g>
</svg>
