<?xml version="1.0" encoding="UTF-8"?>
<svg width="752pt" height="752pt" version="1.1" viewBox="0 0 752 752" xmlns="http://www.w3.org/2000/svg">
 <path d="m489.66 396.07h-38.281v-38.676l38.281-0.003906c3.2695 0 5.918-2.6484 5.918-5.918 0-3.2695-2.6484-5.918-5.918-5.918h-38.281v-76.203c0-3.2695-2.6484-5.918-5.918-5.918-3.2695 0-5.918 2.6484-5.918 5.918v76.199h-73.332l-49.922-79.352c-1.4062-2.2344-4.1172-3.2734-6.6523-2.5352-2.5352 0.73047-4.2812 3.0508-4.2812 5.6875v76.199h-43.012c-3.2695 0-5.918 2.6484-5.918 5.918s2.6484 5.918 5.918 5.918h43.02v38.676l-43.02 0.007812c-3.2695 0-5.918 2.6484-5.918 5.918s2.6484 5.918 5.918 5.918h43.02v74.742c0 3.2695 2.6484 5.918 5.918 5.918s5.918-2.6484 5.918-5.918v-74.742h74.246l49.004 77.895c1.1016 1.7539 3.0117 2.7656 5.0117 2.7656 0.54687 0 1.0977-0.074218 1.6406-0.23047 2.5352-0.73047 4.2812-3.0508 4.2812-5.6875l-0.003906-74.742h38.281c3.2695 0 5.918-2.6484 5.918-5.918 0.003906-3.2695-2.6484-5.918-5.918-5.918zm-50.121-38.68v38.676h-41.551l-24.332-38.676zm-122.34-67.508 35.02 55.668h-35.02zm0 106.19v-38.676h42.469l24.332 38.676zm122.34 66.051-34.102-54.215h34.102z" fill="#1c1b19"/>
</svg>
