<svg xmlns="http://www.w3.org/2000/svg" width="20.265" height="19.73" viewBox="0 0 20.265 19.73">
  <path id="Path_2620" data-name="Path 2620" d="M19.139,9.066H18.013V1.156A.563.563,0,0,0,17.45.593H2.815a.563.563,0,0,0-.563.563V9.065H1.126A1.126,1.126,0,0,0,0,10.191V19.2a1.126,1.126,0,0,0,1.126,1.126H19.139A1.126,1.126,0,0,0,20.265,19.2V10.191A1.125,1.125,0,0,0,19.139,9.066ZM14.65,17.481H5.615V15.229H14.65Zm2.238-8.415H15.762a1.126,1.126,0,0,0-1.126,1.126v2.252H5.629V10.192A1.126,1.126,0,0,0,4.5,9.066H3.377V1.719h13.51ZM14.636,4.285H5.629a.563.563,0,1,1,0-1.126h9.007a.563.563,0,0,1,0,1.126Zm0,2.252H5.629a.563.563,0,0,1,0-1.126h9.007a.563.563,0,0,1,0,1.126Zm0,2.252H5.629a.563.563,0,0,1,0-1.126h9.007a.563.563,0,0,1,0,1.126Z" transform="translate(0 -0.593)" fill="#fff"/>
</svg>
